<svg width="24" height="24" viewBox="0 0 24 24" fill="none" xmlns="http://www.w3.org/2000/svg">
    <circle cx="12" cy="12" r="12" fill="white"/>
    <path d="M12.0751 2.4C14.8986 6.97741 19.3798 14.0413 20.5007 14.6013C20.537 14.9688 20.5499 15.5438 20.5501 15.5521C16.9614 16.598 14.1702 18.5652 12.1765 21.4536C12.1418 21.5018 12.1092 21.5516 12.0751 21.6C12.041 21.5516 12.0084 21.5018 11.9737 21.4536C9.97997 18.5652 7.18878 16.598 3.6001 15.5521C3.60028 15.5438 3.61323 14.9688 3.64951 14.6013C4.77043 14.0413 9.25164 6.97741 12.0751 2.4Z" fill="#F7532E"/>
    <path d="M10.7198 12.5189C10.2399 12.8649 10 13.3893 10 14.0924C10 14.7843 10.2399 15.3032 10.7198 15.6491C11.1996 15.9951 11.6516 16.168 12.0757 16.168C12.5109 16.168 12.9684 15.9951 13.4483 15.6491C13.9281 15.3032 14.168 14.7843 14.168 14.0924C14.168 13.3893 13.9281 12.8649 13.4483 12.5189C12.9684 12.173 12.5109 12 12.0757 12C11.6516 12 11.1996 12.173 10.7198 12.5189Z" fill="white"/>
</svg>
