<svg width="632" height="813" viewBox="0 0 632 813" fill="none" xmlns="http://www.w3.org/2000/svg">
<path fill-rule="evenodd" clip-rule="evenodd" d="M315.346 0C385.97 2.84252e-05 444.686 13.9608 491.495 41.8819C538.304 68.9819 573.207 106.758 596.201 155.209C620.016 203.66 631.923 259.913 631.923 323.968C631.923 428.262 605.644 509.151 553.087 566.636C501.35 623.3 422.103 651.632 315.346 651.632C219.264 651.632 142.481 623.3 84.9961 566.636C28.3325 509.151 0 428.262 0 323.968C6.75298e-05 259.913 13.1401 203.661 39.4188 155.209C65.6976 106.758 102.241 68.9819 149.051 41.8819C196.681 13.9608 252.113 0 315.346 0ZM333.717 224.369C322.666 215.603 309.048 212.152 292.865 214.019C277.341 215.809 264.846 222.103 255.382 232.9C245.918 243.697 243.218 256.56 247.282 271.486L253.492 294.865C255.918 304.291 256.171 312.295 254.252 318.875C252.003 325.493 246.579 332.143 237.979 338.824L220.41 351.894C214.223 356.289 208.634 358.608 203.642 358.849C198.319 359.128 194.254 357.254 191.447 353.227C186.163 345.134 189.65 336.199 201.909 326.418C206.812 322.506 211.989 318.059 217.439 313.08C222.521 307.809 226.663 301.642 229.865 294.579C233.066 287.516 234.095 279.03 232.953 269.121C231.315 254.92 226.114 244.643 217.349 238.291C208.254 231.977 198.162 228.622 187.072 228.228C175.652 227.872 164.759 230.633 154.393 236.514C143.989 242.065 135.782 250.71 129.773 262.447C123.433 274.222 121.31 289.193 123.405 307.359C125.843 328.497 133.274 345.042 145.696 356.997C158.081 368.621 174.213 376.466 194.094 380.533C213.643 384.637 235.734 386.106 260.366 384.939C258.714 393.83 260.618 401.643 266.08 408.376C271.504 414.779 278.923 419.612 288.336 422.877C297.418 426.18 307.078 427.243 317.317 426.062C327.556 424.881 336.741 421.813 344.871 416.859C352.963 411.575 358.756 405.218 362.25 397.787C365.744 390.356 366.005 382.461 363.033 374.102L473.513 361.36C486.724 359.837 497.294 354.267 505.221 344.651C512.78 334.743 515.76 322.853 514.16 308.982C512.484 294.449 506.856 283.385 497.279 275.788C487.371 268.229 475.811 265.211 462.6 266.734L349.644 279.761L349.72 258.668C349.734 244.276 344.4 232.843 333.717 224.369Z" fill="#CCBB65"/>
<path d="M146.279 744.018C146.279 769.476 159.008 787.542 184.466 798.218C209.923 808.073 253.447 813 315.038 813C376.629 813 420.153 808.073 445.611 798.218C471.069 787.542 483.797 769.476 483.797 744.018C483.797 719.382 471.069 702.136 445.611 692.282C420.153 682.427 376.629 677.5 315.038 677.5C253.447 677.5 209.923 682.427 184.466 692.282C159.008 702.136 146.279 719.382 146.279 744.018Z" fill="#CCBB65"/>
</svg>
