<svg width="127" height="44" viewBox="0 0 127 44" fill="none" xmlns="http://www.w3.org/2000/svg">
<rect x="0.383721" y="0.383721" width="126.119" height="43.2326" rx="6.77907" stroke="white" stroke-width="0.767442"/>
<path d="M27.5291 18.2974C27.3924 18.4022 24.9788 19.7454 24.9788 22.7321C24.9788 26.1867 28.05 27.4088 28.1419 27.4391C28.1278 27.5136 27.654 29.1129 26.5226 30.7424C25.5138 32.1764 24.4602 33.6081 22.8575 33.6081C21.2547 33.6081 20.8422 32.6885 18.992 32.6885C17.1889 32.6885 16.5478 33.6383 15.0817 33.6383C13.6157 33.6383 12.5927 32.3114 11.4166 30.6819C10.0542 28.7683 8.95349 25.7956 8.95349 22.9742C8.95349 18.4487 11.9327 16.0486 14.8649 16.0486C16.4229 16.0486 17.7216 17.059 18.6997 17.059C19.6307 17.059 21.0827 15.9881 22.8551 15.9881C23.5269 15.9881 25.9404 16.0486 27.5291 18.2974ZM22.0137 14.0723C22.7467 13.2133 23.2652 12.0214 23.2652 10.8295C23.2652 10.6642 23.2511 10.4966 23.2205 10.3616C22.0278 10.4058 20.6089 11.1461 19.7533 12.1261C19.0816 12.8804 18.4546 14.0723 18.4546 15.2804C18.4546 15.462 18.4852 15.6436 18.4994 15.7018C18.5748 15.7158 18.6974 15.7321 18.8199 15.7321C19.89 15.7321 21.2359 15.0244 22.0137 14.0723Z" fill="black"/>
<path d="M35.4837 15.3954C35.4218 15.3954 35.3692 15.3737 35.3259 15.3304C35.2826 15.2871 35.261 15.2346 35.261 15.1727V9.13228C35.261 9.06424 35.2826 9.00857 35.3259 8.96527C35.3692 8.92197 35.4218 8.90031 35.4837 8.90031H37.7477C38.3724 8.90031 38.8859 8.99619 39.2879 9.18795C39.6962 9.37971 40.0024 9.66426 40.2065 10.0416C40.4168 10.4189 40.5251 10.8798 40.5313 11.4241C40.5436 11.6963 40.5498 11.9375 40.5498 12.1479C40.5498 12.3582 40.5436 12.5963 40.5313 12.8623C40.5189 13.4376 40.4137 13.9139 40.2158 14.2912C40.0178 14.6624 39.7178 14.9407 39.3158 15.1263C38.9199 15.3057 38.4126 15.3954 37.7941 15.3954H35.4837ZM36.5507 14.3283H37.7477C38.0941 14.3283 38.3755 14.2789 38.592 14.1799C38.8085 14.0809 38.9663 13.9232 39.0652 13.7067C39.1704 13.484 39.2261 13.1932 39.2323 12.8345C39.2384 12.6489 39.2415 12.4881 39.2415 12.352C39.2477 12.2097 39.2477 12.0705 39.2415 11.9344C39.2415 11.7922 39.2384 11.6313 39.2323 11.4519C39.2199 10.9447 39.0931 10.5705 38.8518 10.3292C38.6106 10.088 38.2271 9.96736 37.7013 9.96736H36.5507V14.3283ZM43.8078 15.4882C43.3129 15.4882 42.8954 15.4016 42.5552 15.2284C42.2211 15.0552 41.9644 14.8108 41.785 14.4954C41.6118 14.1799 41.5129 13.8118 41.4881 13.3912C41.4819 13.2798 41.4789 13.1438 41.4789 12.9829C41.4789 12.8221 41.4819 12.686 41.4881 12.5747C41.5129 12.1479 41.6149 11.7798 41.7943 11.4705C41.9799 11.155 42.2397 10.9107 42.5737 10.7375C42.914 10.5643 43.3253 10.4777 43.8078 10.4777C44.2903 10.4777 44.6986 10.5643 45.0326 10.7375C45.3728 10.9107 45.6326 11.155 45.812 11.4705C45.9976 11.7798 46.1027 12.1479 46.1275 12.5747C46.1337 12.686 46.1367 12.8221 46.1367 12.9829C46.1367 13.1438 46.1337 13.2798 46.1275 13.3912C46.1027 13.8118 46.0007 14.1799 45.8213 14.4954C45.6481 14.8108 45.3914 15.0552 45.0511 15.2284C44.7171 15.4016 44.3027 15.4882 43.8078 15.4882ZM43.8078 14.5696C44.1356 14.5696 44.3893 14.4675 44.5687 14.2634C44.748 14.0531 44.847 13.7469 44.8656 13.3448C44.8718 13.252 44.8748 13.1314 44.8748 12.9829C44.8748 12.8345 44.8718 12.7138 44.8656 12.6211C44.847 12.2252 44.748 11.9221 44.5687 11.7118C44.3893 11.5014 44.1356 11.3963 43.8078 11.3963C43.48 11.3963 43.2263 11.5014 43.0469 11.7118C42.8676 11.9221 42.7686 12.2252 42.75 12.6211C42.7438 12.7138 42.7408 12.8345 42.7408 12.9829C42.7408 13.1314 42.7438 13.252 42.75 13.3448C42.7686 13.7469 42.8676 14.0531 43.0469 14.2634C43.2263 14.4675 43.48 14.5696 43.8078 14.5696ZM48.3464 15.3954C48.2598 15.3954 48.1949 15.3737 48.1516 15.3304C48.1083 15.2871 48.0712 15.2315 48.0403 15.1634L46.7134 10.8581C46.7072 10.8272 46.7041 10.7993 46.7041 10.7746C46.7041 10.7189 46.7227 10.6725 46.7598 10.6354C46.8031 10.5921 46.8495 10.5705 46.899 10.5705H47.5856C47.6598 10.5705 47.7186 10.5921 47.7619 10.6354C47.8052 10.6725 47.8299 10.7097 47.8361 10.7468L48.7454 13.818L49.7104 10.7746C49.7228 10.7313 49.7506 10.688 49.7939 10.6447C49.8372 10.5952 49.9022 10.5705 49.9888 10.5705H50.4527C50.5393 10.5705 50.6043 10.5952 50.6476 10.6447C50.6909 10.688 50.7187 10.7313 50.7311 10.7746L51.696 13.818L52.6054 10.7468C52.6115 10.7097 52.6332 10.6725 52.6703 10.6354C52.7136 10.5921 52.7724 10.5705 52.8466 10.5705H53.5332C53.5889 10.5705 53.6353 10.5921 53.6724 10.6354C53.7157 10.6725 53.7374 10.7189 53.7374 10.7746C53.7374 10.7993 53.7312 10.8272 53.7188 10.8581L52.392 15.1634C52.3734 15.2315 52.3394 15.2871 52.2899 15.3304C52.2466 15.3737 52.1816 15.3954 52.095 15.3954H51.4919C51.4053 15.3954 51.3373 15.3737 51.2878 15.3304C51.2383 15.2871 51.2043 15.2315 51.1857 15.1634L50.2207 12.2314L49.2558 15.1634C49.231 15.2315 49.1939 15.2871 49.1444 15.3304C49.1011 15.3737 49.0331 15.3954 48.9403 15.3954H48.3464ZM54.863 15.3954C54.8011 15.3954 54.7485 15.3737 54.7052 15.3304C54.6619 15.2871 54.6403 15.2346 54.6403 15.1727V10.7932C54.6403 10.7313 54.6619 10.6787 54.7052 10.6354C54.7485 10.5921 54.8011 10.5705 54.863 10.5705H55.6238C55.6857 10.5705 55.7383 10.5921 55.7816 10.6354C55.8249 10.6787 55.8465 10.7313 55.8465 10.7932V11.1736C56.0073 10.9756 56.2115 10.8117 56.4589 10.6818C56.7125 10.5457 57.0249 10.4777 57.3961 10.4777C57.7734 10.4777 58.1012 10.5643 58.3796 10.7375C58.658 10.9045 58.8714 11.1427 59.0198 11.4519C59.1745 11.7612 59.2518 12.1324 59.2518 12.5654V15.1727C59.2518 15.2346 59.2301 15.2871 59.1868 15.3304C59.1435 15.3737 59.091 15.3954 59.0291 15.3954H58.2126C58.1507 15.3954 58.0981 15.3737 58.0548 15.3304C58.0115 15.2871 57.9899 15.2346 57.9899 15.1727V12.6211C57.9899 12.2623 57.9002 11.9808 57.7208 11.7767C57.5476 11.5726 57.294 11.4705 56.96 11.4705C56.6383 11.4705 56.3816 11.5726 56.1898 11.7767C55.9981 11.9808 55.9022 12.2623 55.9022 12.6211V15.1727C55.9022 15.2346 55.8805 15.2871 55.8372 15.3304C55.7939 15.3737 55.7414 15.3954 55.6795 15.3954H54.863ZM60.6624 15.3954C60.6005 15.3954 60.5479 15.3737 60.5046 15.3304C60.4613 15.2871 60.4397 15.2346 60.4397 15.1727V9.03022C60.4397 8.96836 60.4613 8.91578 60.5046 8.87248C60.5479 8.82918 60.6005 8.80753 60.6624 8.80753H61.4325C61.4944 8.80753 61.5469 8.82918 61.5902 8.87248C61.6335 8.91578 61.6552 8.96836 61.6552 9.03022V15.1727C61.6552 15.2346 61.6335 15.2871 61.5902 15.3304C61.5469 15.3737 61.4944 15.3954 61.4325 15.3954H60.6624ZM65.0201 15.4882C64.5252 15.4882 64.1077 15.4016 63.7675 15.2284C63.4334 15.0552 63.1767 14.8108 62.9973 14.4954C62.8241 14.1799 62.7252 13.8118 62.7004 13.3912C62.6942 13.2798 62.6911 13.1438 62.6911 12.9829C62.6911 12.8221 62.6942 12.686 62.7004 12.5747C62.7252 12.1479 62.8272 11.7798 63.0066 11.4705C63.1922 11.155 63.452 10.9107 63.786 10.7375C64.1262 10.5643 64.5376 10.4777 65.0201 10.4777C65.5026 10.4777 65.9108 10.5643 66.2449 10.7375C66.5851 10.9107 66.8449 11.155 67.0243 11.4705C67.2098 11.7798 67.315 12.1479 67.3397 12.5747C67.3459 12.686 67.349 12.8221 67.349 12.9829C67.349 13.1438 67.3459 13.2798 67.3397 13.3912C67.315 13.8118 67.2129 14.1799 67.0335 14.4954C66.8603 14.8108 66.6036 15.0552 66.2634 15.2284C65.9294 15.4016 65.5149 15.4882 65.0201 15.4882ZM65.0201 14.5696C65.3479 14.5696 65.6015 14.4675 65.7809 14.2634C65.9603 14.0531 66.0593 13.7469 66.0778 13.3448C66.084 13.252 66.0871 13.1314 66.0871 12.9829C66.0871 12.8345 66.084 12.7138 66.0778 12.6211C66.0593 12.2252 65.9603 11.9221 65.7809 11.7118C65.6015 11.5014 65.3479 11.3963 65.0201 11.3963C64.6922 11.3963 64.4386 11.5014 64.2592 11.7118C64.0798 11.9221 63.9809 12.2252 63.9623 12.6211C63.9561 12.7138 63.953 12.8345 63.953 12.9829C63.953 13.1314 63.9561 13.252 63.9623 13.3448C63.9809 13.7469 64.0798 14.0531 64.2592 14.2634C64.4386 14.4675 64.6922 14.5696 65.0201 14.5696ZM69.7782 15.4882C69.4565 15.4882 69.1658 15.4263 68.906 15.3026C68.6462 15.1727 68.4389 15.0026 68.2843 14.7923C68.1358 14.5758 68.0616 14.3345 68.0616 14.0685C68.0616 13.6355 68.2348 13.2922 68.5812 13.0386C68.9338 12.7788 69.3977 12.6056 69.973 12.519L71.2442 12.3334V12.1386C71.2442 11.8788 71.1792 11.6777 71.0493 11.5355C70.9194 11.3932 70.6967 11.322 70.3813 11.322C70.1586 11.322 69.9761 11.3684 69.8338 11.4612C69.6977 11.5478 69.5957 11.6654 69.5276 11.8138C69.4781 11.8942 69.407 11.9344 69.3142 11.9344H68.5812C68.5132 11.9344 68.4606 11.9159 68.4235 11.8788C68.3925 11.8417 68.3771 11.7922 68.3771 11.7303C68.3833 11.6313 68.4235 11.5107 68.4977 11.3684C68.5719 11.2262 68.6895 11.0901 68.8503 10.9602C69.0111 10.8241 69.2183 10.7097 69.472 10.6169C69.7256 10.5241 70.0318 10.4777 70.3905 10.4777C70.7802 10.4777 71.1081 10.5272 71.3741 10.6261C71.6463 10.7189 71.8628 10.8457 72.0236 11.0066C72.1844 11.1674 72.3019 11.3561 72.3762 11.5726C72.4504 11.7891 72.4875 12.0179 72.4875 12.2592V15.1727C72.4875 15.2346 72.4659 15.2871 72.4226 15.3304C72.3793 15.3737 72.3267 15.3954 72.2648 15.3954H71.5133C71.4452 15.3954 71.3895 15.3737 71.3462 15.3304C71.3091 15.2871 71.2906 15.2346 71.2906 15.1727V14.8108C71.2102 14.9284 71.1019 15.0397 70.9658 15.1449C70.8297 15.2438 70.6627 15.3273 70.4648 15.3954C70.273 15.4572 70.0441 15.4882 69.7782 15.4882ZM70.0936 14.6067C70.3101 14.6067 70.505 14.5603 70.6782 14.4675C70.8576 14.3747 70.9968 14.2325 71.0957 14.0407C71.2009 13.8428 71.2535 13.5953 71.2535 13.2984V13.1036L70.3256 13.252C69.9606 13.3077 69.6885 13.3974 69.5091 13.5211C69.3297 13.6448 69.24 13.7964 69.24 13.9757C69.24 14.1118 69.2802 14.2294 69.3606 14.3283C69.4472 14.4211 69.5555 14.4923 69.6854 14.5417C69.8153 14.585 69.9514 14.6067 70.0936 14.6067ZM75.4687 15.4882C75.147 15.4882 74.8625 15.4356 74.615 15.3304C74.3738 15.2191 74.1727 15.0644 74.0119 14.8665C73.8511 14.6686 73.7274 14.4366 73.6408 14.1706C73.5542 13.8984 73.5047 13.6015 73.4923 13.2798C73.4861 13.1685 73.483 13.0695 73.483 12.9829C73.483 12.8901 73.4861 12.7881 73.4923 12.6767C73.5047 12.3674 73.5511 12.0798 73.6315 11.8138C73.7181 11.5478 73.8418 11.3159 74.0026 11.1179C74.1696 10.9138 74.3738 10.756 74.615 10.6447C74.8625 10.5334 75.147 10.4777 75.4687 10.4777C75.8027 10.4777 76.0841 10.5365 76.313 10.654C76.5481 10.7653 76.7429 10.9107 76.8976 11.0901V9.03022C76.8976 8.96836 76.9161 8.91578 76.9532 8.87248C76.9965 8.82918 77.0522 8.80753 77.1203 8.80753H77.909C77.9708 8.80753 78.0234 8.82918 78.0667 8.87248C78.11 8.91578 78.1316 8.96836 78.1316 9.03022V15.1727C78.1316 15.2346 78.11 15.2871 78.0667 15.3304C78.0234 15.3737 77.9708 15.3954 77.909 15.3954H77.1759C77.1079 15.3954 77.0522 15.3737 77.0089 15.3304C76.9718 15.2871 76.9532 15.2346 76.9532 15.1727V14.8294C76.7986 15.0211 76.6007 15.1789 76.3594 15.3026C76.1244 15.4263 75.8274 15.4882 75.4687 15.4882ZM75.812 14.4954C76.0718 14.4954 76.279 14.4366 76.4336 14.3191C76.5883 14.2015 76.7027 14.0531 76.777 13.8737C76.8512 13.6881 76.8914 13.4994 76.8976 13.3077C76.9038 13.1963 76.9069 13.0788 76.9069 12.9551C76.9069 12.8252 76.9038 12.7046 76.8976 12.5932C76.8914 12.4077 76.8481 12.2314 76.7677 12.0643C76.6873 11.8911 76.5697 11.7489 76.4151 11.6375C76.2604 11.5262 76.0594 11.4705 75.812 11.4705C75.5522 11.4705 75.3449 11.5293 75.1903 11.6468C75.0418 11.7581 74.9336 11.9066 74.8655 12.0922C74.7975 12.2778 74.7573 12.4819 74.7449 12.7046C74.7387 12.8901 74.7387 13.0757 74.7449 13.2613C74.7573 13.484 74.7975 13.6881 74.8655 13.8737C74.9336 14.0593 75.0418 14.2108 75.1903 14.3283C75.3449 14.4397 75.5522 14.4954 75.812 14.4954ZM83.6227 15.4882C83.1279 15.4882 82.7103 15.4016 82.3701 15.2284C82.0361 15.0552 81.7794 14.8108 81.6 14.4954C81.4268 14.1799 81.3278 13.8118 81.3031 13.3912C81.2969 13.2798 81.2938 13.1438 81.2938 12.9829C81.2938 12.8221 81.2969 12.686 81.3031 12.5747C81.3278 12.1479 81.4299 11.7798 81.6093 11.4705C81.7948 11.155 82.0546 10.9107 82.3887 10.7375C82.7289 10.5643 83.1402 10.4777 83.6227 10.4777C84.1052 10.4777 84.5135 10.5643 84.8475 10.7375C85.1877 10.9107 85.4475 11.155 85.6269 11.4705C85.8125 11.7798 85.9177 12.1479 85.9424 12.5747C85.9486 12.686 85.9517 12.8221 85.9517 12.9829C85.9517 13.1438 85.9486 13.2798 85.9424 13.3912C85.9177 13.8118 85.8156 14.1799 85.6362 14.4954C85.463 14.8108 85.2063 15.0552 84.8661 15.2284C84.532 15.4016 84.1176 15.4882 83.6227 15.4882ZM83.6227 14.5696C83.9506 14.5696 84.2042 14.4675 84.3836 14.2634C84.563 14.0531 84.6619 13.7469 84.6805 13.3448C84.6867 13.252 84.6898 13.1314 84.6898 12.9829C84.6898 12.8345 84.6867 12.7138 84.6805 12.6211C84.6619 12.2252 84.563 11.9221 84.3836 11.7118C84.2042 11.5014 83.9506 11.3963 83.6227 11.3963C83.2949 11.3963 83.0413 11.5014 82.8619 11.7118C82.6825 11.9221 82.5835 12.2252 82.565 12.6211C82.5588 12.7138 82.5557 12.8345 82.5557 12.9829C82.5557 13.1314 82.5588 13.252 82.565 13.3448C82.5835 13.7469 82.6825 14.0531 82.8619 14.2634C83.0413 14.4675 83.2949 14.5696 83.6227 14.5696ZM87.2024 15.3954C87.1406 15.3954 87.088 15.3737 87.0447 15.3304C87.0014 15.2871 86.9797 15.2346 86.9797 15.1727V10.7932C86.9797 10.7313 87.0014 10.6787 87.0447 10.6354C87.088 10.5921 87.1406 10.5705 87.2024 10.5705H87.9633C88.0251 10.5705 88.0777 10.5921 88.121 10.6354C88.1643 10.6787 88.186 10.7313 88.186 10.7932V11.1736C88.3468 10.9756 88.5509 10.8117 88.7983 10.6818C89.052 10.5457 89.3643 10.4777 89.7355 10.4777C90.1128 10.4777 90.4407 10.5643 90.719 10.7375C90.9974 10.9045 91.2108 11.1427 91.3593 11.4519C91.5139 11.7612 91.5912 12.1324 91.5912 12.5654V15.1727C91.5912 15.2346 91.5696 15.2871 91.5263 15.3304C91.483 15.3737 91.4304 15.3954 91.3685 15.3954H90.552C90.4902 15.3954 90.4376 15.3737 90.3943 15.3304C90.351 15.2871 90.3293 15.2346 90.3293 15.1727V12.6211C90.3293 12.2623 90.2396 11.9808 90.0602 11.7767C89.887 11.5726 89.6334 11.4705 89.2994 11.4705C88.9777 11.4705 88.721 11.5726 88.5293 11.7767C88.3375 11.9808 88.2416 12.2623 88.2416 12.6211V15.1727C88.2416 15.2346 88.22 15.2871 88.1767 15.3304C88.1334 15.3737 88.0808 15.3954 88.0189 15.3954H87.2024ZM96.8804 15.3954C96.5092 15.3954 96.1968 15.3304 95.9432 15.2005C95.6896 15.0706 95.5009 14.8789 95.3772 14.6253C95.2535 14.3655 95.1916 14.0438 95.1916 13.6603V11.554H94.4586C94.3968 11.554 94.3442 11.5324 94.3009 11.4891C94.2576 11.4458 94.2359 11.3932 94.2359 11.3313V10.7932C94.2359 10.7313 94.2576 10.6787 94.3009 10.6354C94.3442 10.5921 94.3968 10.5705 94.4586 10.5705H95.1916V9.03022C95.1916 8.96836 95.2102 8.91578 95.2473 8.87248C95.2906 8.82918 95.3463 8.80753 95.4143 8.80753H96.1659C96.2278 8.80753 96.2803 8.82918 96.3236 8.87248C96.3669 8.91578 96.3886 8.96836 96.3886 9.03022V10.5705H97.5484C97.6103 10.5705 97.6629 10.5921 97.7062 10.6354C97.7495 10.6787 97.7711 10.7313 97.7711 10.7932V11.3313C97.7711 11.3932 97.7495 11.4458 97.7062 11.4891C97.6629 11.5324 97.6103 11.554 97.5484 11.554H96.3886V13.5675C96.3886 13.8211 96.4319 14.019 96.5185 14.1613C96.6113 14.3036 96.769 14.3747 96.9917 14.3747H97.6319C97.6938 14.3747 97.7464 14.3964 97.7897 14.4397C97.833 14.483 97.8546 14.5356 97.8546 14.5974V15.1727C97.8546 15.2346 97.833 15.2871 97.7897 15.3304C97.7464 15.3737 97.6938 15.3954 97.6319 15.3954H96.8804ZM98.9097 15.3954C98.8478 15.3954 98.7953 15.3737 98.752 15.3304C98.7087 15.2871 98.687 15.2346 98.687 15.1727V9.03022C98.687 8.96836 98.7087 8.91578 98.752 8.87248C98.7953 8.82918 98.8478 8.80753 98.9097 8.80753H99.7355C99.8036 8.80753 99.8561 8.82918 99.8932 8.87248C99.9365 8.91578 99.9582 8.96836 99.9582 9.03022V11.1458C100.125 10.9478 100.329 10.787 100.571 10.6633C100.812 10.5395 101.109 10.4777 101.461 10.4777C101.839 10.4777 102.167 10.5643 102.445 10.7375C102.729 10.9045 102.949 11.1427 103.104 11.4519C103.258 11.7612 103.336 12.1324 103.336 12.5654V15.1727C103.336 15.2346 103.314 15.2871 103.271 15.3304C103.227 15.3737 103.175 15.3954 103.113 15.3954H102.278C102.216 15.3954 102.163 15.3737 102.12 15.3304C102.077 15.2871 102.055 15.2346 102.055 15.1727V12.6211C102.055 12.2623 101.965 11.9808 101.786 11.7767C101.613 11.5726 101.359 11.4705 101.025 11.4705C100.704 11.4705 100.444 11.5726 100.246 11.7767C100.054 11.9808 99.9582 12.2623 99.9582 12.6211V15.1727C99.9582 15.2346 99.9365 15.2871 99.8932 15.3304C99.8561 15.3737 99.8036 15.3954 99.7355 15.3954H98.9097ZM106.592 15.4882C105.905 15.4882 105.361 15.2902 104.959 14.8943C104.556 14.4984 104.34 13.9355 104.309 13.2056C104.303 13.1438 104.3 13.0664 104.3 12.9737C104.3 12.8747 104.303 12.7974 104.309 12.7417C104.334 12.2778 104.439 11.8757 104.624 11.5355C104.816 11.1952 105.079 10.9354 105.413 10.756C105.747 10.5705 106.14 10.4777 106.592 10.4777C107.093 10.4777 107.513 10.5828 107.853 10.7932C108.194 10.9973 108.45 11.2849 108.624 11.6561C108.797 12.021 108.883 12.4448 108.883 12.9273V13.1221C108.883 13.184 108.862 13.2365 108.818 13.2798C108.775 13.3231 108.719 13.3448 108.651 13.3448H105.571C105.571 13.3448 105.571 13.3541 105.571 13.3726C105.571 13.3912 105.571 13.4067 105.571 13.419C105.577 13.6355 105.617 13.8366 105.692 14.0221C105.772 14.2015 105.886 14.3469 106.035 14.4582C106.189 14.5696 106.372 14.6253 106.582 14.6253C106.755 14.6253 106.901 14.6005 107.018 14.551C107.136 14.4954 107.232 14.4335 107.306 14.3655C107.38 14.2974 107.433 14.2417 107.464 14.1984C107.519 14.1242 107.563 14.0809 107.594 14.0685C107.631 14.05 107.683 14.0407 107.751 14.0407H108.549C108.611 14.0407 108.661 14.0593 108.698 14.0964C108.741 14.1335 108.76 14.1799 108.754 14.2356C108.747 14.3345 108.695 14.4551 108.596 14.5974C108.503 14.7397 108.367 14.8789 108.188 15.015C108.008 15.151 107.782 15.2655 107.51 15.3583C107.244 15.4449 106.938 15.4882 106.592 15.4882ZM105.571 12.5654H107.622V12.5376C107.622 12.2963 107.581 12.086 107.501 11.9066C107.42 11.7272 107.303 11.5849 107.148 11.4798C106.994 11.3746 106.808 11.322 106.592 11.322C106.375 11.322 106.189 11.3746 106.035 11.4798C105.88 11.5849 105.763 11.7272 105.682 11.9066C105.608 12.086 105.571 12.2963 105.571 12.5376V12.5654Z" fill="black"/>
<path d="M35.2255 32.3256C35.1207 32.3256 35.0223 32.2862 34.9306 32.2076C34.8519 32.1289 34.8126 32.0306 34.8126 31.9126C34.8126 31.8601 34.8257 31.8011 34.8519 31.7356L39.5913 19.0514C39.6306 18.9203 39.7027 18.8088 39.8076 18.717C39.9256 18.6122 40.0829 18.5597 40.2796 18.5597H42.4231C42.6198 18.5597 42.7705 18.6122 42.8754 18.717C42.9803 18.8088 43.059 18.9203 43.1114 19.0514L47.8508 31.7356C47.8639 31.8011 47.8704 31.8601 47.8704 31.9126C47.8704 32.0306 47.8311 32.1289 47.7525 32.2076C47.6738 32.2862 47.582 32.3256 47.4771 32.3256H45.7662C45.5827 32.3256 45.445 32.2862 45.3533 32.2076C45.2746 32.1158 45.2222 32.0306 45.1959 31.9519L44.2717 29.5527H38.431L37.5067 31.9519C37.4805 32.0306 37.4215 32.1158 37.3297 32.2076C37.2511 32.2862 37.12 32.3256 36.9364 32.3256H35.2255ZM39.1193 27.2912H43.5834L41.3415 21.2146L39.1193 27.2912ZM48.5855 36.062C48.4544 36.062 48.3429 36.0161 48.2512 35.9243C48.1594 35.8326 48.1135 35.7211 48.1135 35.59V22.5715C48.1135 22.4404 48.1594 22.3289 48.2512 22.2372C48.3429 22.1454 48.4544 22.0995 48.5855 22.0995H50.139C50.2833 22.0995 50.3947 22.1454 50.4734 22.2372C50.5651 22.3289 50.611 22.4404 50.611 22.5715V23.3581C50.9257 22.9386 51.3386 22.5911 51.8499 22.3158C52.3612 22.0405 52.9971 21.9029 53.7575 21.9029C54.4523 21.9029 55.0554 22.0143 55.5667 22.2372C56.078 22.46 56.5041 22.7812 56.845 23.2008C57.1858 23.6072 57.4481 24.0923 57.6316 24.656C57.8151 25.2198 57.92 25.8425 57.9462 26.5242C57.9594 26.7471 57.9659 26.9765 57.9659 27.2125C57.9659 27.4485 57.9594 27.6845 57.9462 27.9205C57.9331 28.576 57.8348 29.1856 57.6513 29.7494C57.4677 30.3 57.199 30.7851 56.845 31.2046C56.5041 31.611 56.078 31.9323 55.5667 32.1682C55.0554 32.4042 54.4523 32.5222 53.7575 32.5222C53.0495 32.5222 52.4465 32.3977 51.9483 32.1486C51.4501 31.8864 51.0437 31.5455 50.729 31.126V35.59C50.729 35.7211 50.6831 35.8326 50.5914 35.9243C50.5127 36.0161 50.4013 36.062 50.257 36.062H48.5855ZM53.0299 30.418C53.5936 30.418 54.0328 30.3 54.3475 30.064C54.6621 29.8149 54.885 29.4937 55.0161 29.1004C55.1603 28.7071 55.2455 28.2745 55.2717 27.8025C55.298 27.4092 55.298 27.0159 55.2717 26.6226C55.2455 26.1506 55.1603 25.718 55.0161 25.3246C54.885 24.9313 54.6621 24.6167 54.3475 24.3807C54.0328 24.1316 53.5936 24.0071 53.0299 24.0071C52.4924 24.0071 52.0532 24.1316 51.7123 24.3807C51.3845 24.6298 51.142 24.951 50.9847 25.3443C50.8404 25.7245 50.7552 26.1178 50.729 26.5242C50.7159 26.7602 50.7093 27.0093 50.7093 27.2715C50.7093 27.5337 50.7159 27.7894 50.729 28.0385C50.7421 28.4318 50.8339 28.812 51.0043 29.1791C51.1748 29.5331 51.4239 29.828 51.7516 30.064C52.0794 30.3 52.5055 30.418 53.0299 30.418ZM59.2886 36.062C59.1575 36.062 59.046 36.0161 58.9543 35.9243C58.8625 35.8326 58.8166 35.7211 58.8166 35.59V22.5715C58.8166 22.4404 58.8625 22.3289 58.9543 22.2372C59.046 22.1454 59.1575 22.0995 59.2886 22.0995H60.8421C60.9864 22.0995 61.0978 22.1454 61.1765 22.2372C61.2682 22.3289 61.3141 22.4404 61.3141 22.5715V23.3581C61.6288 22.9386 62.0417 22.5911 62.553 22.3158C63.0643 22.0405 63.7002 21.9029 64.4606 21.9029C65.1554 21.9029 65.7585 22.0143 66.2698 22.2372C66.7811 22.46 67.2072 22.7812 67.5481 23.2008C67.8889 23.6072 68.1512 24.0923 68.3347 24.656C68.5182 25.2198 68.6231 25.8425 68.6493 26.5242C68.6625 26.7471 68.669 26.9765 68.669 27.2125C68.669 27.4485 68.6625 27.6845 68.6493 27.9205C68.6362 28.576 68.5379 29.1856 68.3544 29.7494C68.1708 30.3 67.9021 30.7851 67.5481 31.2046C67.2072 31.611 66.7811 31.9323 66.2698 32.1682C65.7585 32.4042 65.1554 32.5222 64.4606 32.5222C63.7526 32.5222 63.1496 32.3977 62.6514 32.1486C62.1532 31.8864 61.7468 31.5455 61.4321 31.126V35.59C61.4321 35.7211 61.3862 35.8326 61.2944 35.9243C61.2158 36.0161 61.1043 36.062 60.9601 36.062H59.2886ZM63.733 30.418C64.2967 30.418 64.7359 30.3 65.0506 30.064C65.3652 29.8149 65.5881 29.4937 65.7192 29.1004C65.8634 28.7071 65.9486 28.2745 65.9748 27.8025C66.0011 27.4092 66.0011 27.0159 65.9748 26.6226C65.9486 26.1506 65.8634 25.718 65.7192 25.3246C65.5881 24.9313 65.3652 24.6167 65.0506 24.3807C64.7359 24.1316 64.2967 24.0071 63.733 24.0071C63.1954 24.0071 62.7563 24.1316 62.4154 24.3807C62.0876 24.6298 61.8451 24.951 61.6878 25.3443C61.5435 25.7245 61.4583 26.1178 61.4321 26.5242C61.419 26.7602 61.4124 27.0093 61.4124 27.2715C61.4124 27.5337 61.419 27.7894 61.4321 28.0385C61.4452 28.4318 61.537 28.812 61.7074 29.1791C61.8779 29.5331 62.127 29.828 62.4547 30.064C62.7825 30.3 63.2086 30.418 63.733 30.418ZM77.632 32.5222C76.4128 32.5222 75.3901 32.3452 74.5642 31.9912C73.7514 31.6242 73.1286 31.1522 72.696 30.5753C72.2764 29.9854 72.0536 29.3692 72.0274 28.7268C72.0274 28.6088 72.0667 28.5105 72.1453 28.4318C72.224 28.3531 72.3223 28.3138 72.4403 28.3138H74.1906C74.361 28.3138 74.4855 28.3531 74.5642 28.4318C74.656 28.4973 74.7346 28.5826 74.8002 28.6874C74.8788 28.9365 75.0296 29.1856 75.2525 29.4347C75.4754 29.6707 75.7769 29.8674 76.1571 30.0247C76.5504 30.182 77.0421 30.2607 77.632 30.2607C78.576 30.2607 79.2774 30.1034 79.7362 29.7887C80.2082 29.4741 80.4442 29.048 80.4442 28.5105C80.4442 28.1303 80.3196 27.8287 80.0705 27.6058C79.8214 27.3699 79.4347 27.1601 78.9103 26.9765C78.399 26.7799 77.7172 26.5767 76.8651 26.3669C75.8818 26.1309 75.0558 25.8491 74.3872 25.5213C73.7317 25.1804 73.2335 24.7543 72.8926 24.243C72.5649 23.7317 72.401 23.0828 72.401 22.2962C72.401 21.5358 72.6042 20.8606 73.0106 20.2706C73.4302 19.6807 74.0201 19.2152 74.7805 18.8744C75.554 18.5335 76.4718 18.3631 77.5337 18.3631C78.3859 18.3631 79.1397 18.4811 79.7952 18.717C80.4507 18.9399 80.9948 19.2415 81.4275 19.6217C81.8601 19.9887 82.1879 20.3886 82.4107 20.8212C82.6467 21.2408 82.7713 21.6538 82.7844 22.0602C82.7844 22.1651 82.745 22.2634 82.6664 22.3552C82.6008 22.4338 82.5025 22.4732 82.3714 22.4732H80.5425C80.4376 22.4732 80.3327 22.4469 80.2279 22.3945C80.123 22.342 80.0378 22.2437 79.9722 22.0995C79.8935 21.6931 79.6379 21.3457 79.2053 21.0572C78.7726 20.7688 78.2154 20.6246 77.5337 20.6246C76.8257 20.6246 76.2554 20.7557 75.8228 21.0179C75.3901 21.2801 75.1738 21.6865 75.1738 22.2372C75.1738 22.6043 75.2787 22.9123 75.4885 23.1614C75.7114 23.3974 76.0588 23.6072 76.5307 23.7907C77.0158 23.9743 77.6517 24.1709 78.4383 24.3807C79.5527 24.6298 80.4638 24.9182 81.1718 25.246C81.8798 25.5737 82.3976 25.9933 82.7254 26.5046C83.0531 27.0028 83.217 27.6386 83.217 28.4121C83.217 29.2774 82.981 30.0181 82.5091 30.6343C82.0502 31.2374 81.4012 31.7028 80.5622 32.0306C79.7231 32.3583 78.7464 32.5222 77.632 32.5222ZM88.4795 32.3256C87.6929 32.3256 87.0308 32.1879 86.4933 31.9126C85.9558 31.6373 85.5559 31.2308 85.2937 30.6933C85.0315 30.1427 84.9004 29.461 84.9004 28.6481V24.184H83.3468C83.2157 24.184 83.1043 24.1382 83.0125 24.0464C82.9208 23.9546 82.8749 23.8432 82.8749 23.7121V22.5715C82.8749 22.4404 82.9208 22.3289 83.0125 22.2372C83.1043 22.1454 83.2157 22.0995 83.3468 22.0995H84.9004V18.835C84.9004 18.7039 84.9397 18.5925 85.0184 18.5007C85.1102 18.4089 85.2282 18.3631 85.3724 18.3631H86.9653C87.0964 18.3631 87.2078 18.4089 87.2996 18.5007C87.3914 18.5925 87.4373 18.7039 87.4373 18.835V22.0995H89.8954C90.0265 22.0995 90.138 22.1454 90.2298 22.2372C90.3215 22.3289 90.3674 22.4404 90.3674 22.5715V23.7121C90.3674 23.8432 90.3215 23.9546 90.2298 24.0464C90.138 24.1382 90.0265 24.184 89.8954 24.184H87.4373V28.4515C87.4373 28.989 87.529 29.4085 87.7126 29.7101C87.9092 30.0116 88.2435 30.1624 88.7155 30.1624H90.0724C90.2035 30.1624 90.315 30.2082 90.4067 30.3C90.4985 30.3918 90.5444 30.5032 90.5444 30.6343V31.8536C90.5444 31.9847 90.4985 32.0961 90.4067 32.1879C90.315 32.2797 90.2035 32.3256 90.0724 32.3256H88.4795ZM95.4354 32.5222C94.3866 32.5222 93.5017 32.3387 92.7806 31.9716C92.0726 31.6045 91.5286 31.0866 91.1484 30.418C90.7813 29.7494 90.5715 28.9693 90.5191 28.0778C90.5059 27.8418 90.4994 27.5534 90.4994 27.2125C90.4994 26.8717 90.5059 26.5832 90.5191 26.3473C90.5715 25.4426 90.7878 24.6626 91.168 24.0071C91.5613 23.3384 92.112 22.8206 92.8199 22.4535C93.541 22.0864 94.4128 21.9029 95.4354 21.9029C96.458 21.9029 97.3233 22.0864 98.0313 22.4535C98.7523 22.8206 99.303 23.3384 99.6832 24.0071C100.076 24.6626 100.299 25.4426 100.352 26.3473C100.365 26.5832 100.371 26.8717 100.371 27.2125C100.371 27.5534 100.365 27.8418 100.352 28.0778C100.299 28.9693 100.083 29.7494 99.7028 30.418C99.3358 31.0866 98.7917 31.6045 98.0706 31.9716C97.3626 32.3387 96.4843 32.5222 95.4354 32.5222ZM95.4354 30.5753C96.1303 30.5753 96.6678 30.359 97.048 29.9264C97.4282 29.4806 97.638 28.8317 97.6773 27.9795C97.6904 27.7828 97.697 27.5272 97.697 27.2125C97.697 26.8979 97.6904 26.6422 97.6773 26.4456C97.638 25.6065 97.4282 24.9641 97.048 24.5184C96.6678 24.0726 96.1303 23.8497 95.4354 23.8497C94.7406 23.8497 94.2031 24.0726 93.8229 24.5184C93.4427 24.9641 93.2329 25.6065 93.1936 26.4456C93.1805 26.6422 93.1739 26.8979 93.1739 27.2125C93.1739 27.5272 93.1805 27.7828 93.1936 27.9795C93.2329 28.8317 93.4427 29.4806 93.8229 29.9264C94.2031 30.359 94.7406 30.5753 95.4354 30.5753ZM101.646 32.3256C101.515 32.3256 101.403 32.2797 101.311 32.1879C101.22 32.0961 101.174 31.9847 101.174 31.8536V22.5911C101.174 22.4469 101.22 22.3289 101.311 22.2372C101.403 22.1454 101.515 22.0995 101.646 22.0995H103.239C103.37 22.0995 103.481 22.1454 103.573 22.2372C103.678 22.3289 103.73 22.4469 103.73 22.5911V23.3974C104.032 22.9779 104.419 22.6567 104.891 22.4338C105.376 22.2109 105.933 22.0995 106.562 22.0995H107.368C107.513 22.0995 107.624 22.1454 107.703 22.2372C107.794 22.3289 107.84 22.4404 107.84 22.5715V23.9874C107.84 24.1185 107.794 24.2299 107.703 24.3217C107.624 24.4135 107.513 24.4594 107.368 24.4594H105.834C105.205 24.4594 104.714 24.6364 104.36 24.9903C104.019 25.3443 103.848 25.8294 103.848 26.4456V31.8536C103.848 31.9847 103.802 32.0961 103.711 32.1879C103.619 32.2797 103.501 32.3256 103.357 32.3256H101.646ZM112.268 32.5222C110.813 32.5222 109.659 32.1027 108.807 31.2636C107.955 30.4246 107.496 29.2315 107.43 27.6845C107.417 27.5534 107.411 27.3895 107.411 27.1929C107.411 26.9831 107.417 26.8192 107.43 26.7012C107.483 25.718 107.706 24.8658 108.099 24.1447C108.505 23.4236 109.063 22.873 109.771 22.4928C110.479 22.0995 111.311 21.9029 112.268 21.9029C113.33 21.9029 114.222 22.1257 114.943 22.5715C115.664 23.0041 116.208 23.6137 116.575 24.4004C116.942 25.1739 117.126 26.0719 117.126 27.0945V27.5075C117.126 27.6386 117.08 27.7501 116.988 27.8418C116.896 27.9336 116.778 27.9795 116.634 27.9795H110.105C110.105 27.9795 110.105 27.9992 110.105 28.0385C110.105 28.0778 110.105 28.1106 110.105 28.1368C110.118 28.5957 110.203 29.0218 110.361 29.4151C110.531 29.7953 110.774 30.1034 111.088 30.3393C111.416 30.5753 111.803 30.6933 112.248 30.6933C112.616 30.6933 112.924 30.6409 113.173 30.536C113.422 30.418 113.625 30.2869 113.782 30.1427C113.94 29.9985 114.051 29.8805 114.117 29.7887C114.235 29.6314 114.326 29.5396 114.392 29.5134C114.471 29.4741 114.582 29.4544 114.726 29.4544H116.418C116.549 29.4544 116.654 29.4937 116.732 29.5724C116.824 29.6511 116.863 29.7494 116.85 29.8674C116.837 30.0771 116.726 30.3328 116.516 30.6343C116.319 30.9359 116.031 31.2308 115.651 31.5193C115.27 31.8077 114.792 32.0502 114.215 32.2469C113.651 32.4304 113.002 32.5222 112.268 32.5222ZM110.105 26.3276H114.451V26.2686C114.451 25.7573 114.366 25.3115 114.195 24.9313C114.025 24.5511 113.776 24.2496 113.448 24.0267C113.12 23.8038 112.727 23.6924 112.268 23.6924C111.809 23.6924 111.416 23.8038 111.088 24.0267C110.76 24.2496 110.511 24.5511 110.341 24.9313C110.184 25.3115 110.105 25.7573 110.105 26.2686V26.3276Z" fill="black"/>
</svg>
