<svg width="228" height="181" viewBox="0 0 228 181" fill="none" xmlns="http://www.w3.org/2000/svg">
<path d="M43.5443 152.043C39.4504 153.074 35.7683 152.654 32.4981 150.783C29.3009 148.789 27.2112 145.843 26.2291 141.944L18.0163 109.339C15.6292 110.562 13.2527 110.798 10.8865 110.046C8.52035 109.295 6.38451 107.811 4.47898 105.596C2.67092 103.357 1.38632 100.726 0.625192 97.7041C-0.135937 94.6824 -0.202098 91.7448 0.426706 88.8912C1.03096 85.9402 2.1847 83.5246 3.88793 81.6444C5.68864 79.7396 7.95437 78.8579 10.6851 78.9993C9.35561 71.6634 8.91712 64.9842 9.36964 58.9617C9.79761 52.8416 11.5072 47.6945 14.4985 43.5203C17.5873 39.3215 22.2508 36.4365 28.4892 34.8651C33.8503 33.5147 38.4215 33.5554 42.2029 34.9871C45.9597 36.3213 48.8768 38.4371 50.9542 41.3346C53.1291 44.2075 54.3903 47.3624 54.7377 50.7993C55.0605 54.1388 54.4566 57.297 52.926 60.274C51.3708 63.1535 48.4976 65.1212 44.3061 66.177C41.3819 66.9135 38.7977 66.9425 36.5536 66.2638C34.3095 65.5852 32.2964 64.5892 30.5144 63.2759C28.8052 61.8405 27.2669 60.4658 25.8993 59.1517C22.4803 55.8666 19.6633 55.1768 17.4481 57.0823C16.3528 58.0838 15.9529 59.3766 16.2482 60.9608C16.519 62.4474 17.4361 64.0305 18.9993 65.7099L23.6155 70.4557C25.96 72.7676 28.1688 74.1289 30.2418 74.5397C32.2902 74.853 34.6787 74.4587 37.4073 73.3568L44.1677 70.5655C48.4796 68.7538 52.4418 69.0515 56.0543 71.4586C59.6667 73.8658 62.0499 77.36 63.2039 81.9414C64.407 86.7176 63.9147 90.9361 61.727 94.597C59.6123 98.1357 56.3978 100.189 52.0836 100.758L45.7586 101.573L54.1556 134.91C55.1377 138.809 54.693 142.393 52.8216 145.664C50.9256 148.836 47.8332 150.963 43.5443 152.043Z" fill="#CCBB65"/>
<path d="M66.1891 107.64C65.2838 103.851 65.7383 100.652 67.5525 98.0416C69.4295 95.3294 72.2212 93.5304 75.9277 92.6448C79.7989 91.7198 83.1435 92.0526 85.9615 93.643C88.7598 95.1511 90.6115 97.7996 91.5169 101.589L104.093 154.221C104.467 155.786 105.144 156.799 106.125 157.261C107.087 157.641 108.387 157.069 110.025 155.546C113.573 152.173 116.786 149.403 119.663 147.235C122.521 144.985 125.886 143.398 129.757 142.473C135.111 141.193 139.482 141.629 142.869 143.78C146.256 145.931 148.491 149.272 149.573 153.802C150.734 158.662 150.147 162.764 147.812 166.108C145.559 169.432 141.22 171.862 134.795 173.397L109.344 179.479C103.908 180.777 99.2302 181.242 95.3108 180.873C91.3718 180.421 88.0516 178.733 85.3503 175.808C82.7313 172.864 80.6543 168.18 79.1192 161.755L66.1891 107.64Z" fill="#CCBB65"/>
<path d="M103.824 79.762C92.063 79.762 82.6644 76.2941 75.6281 69.3583C68.6922 62.3219 65.2243 52.4208 65.2243 39.6549C65.2243 31.8144 66.8326 24.9288 70.0492 18.9981C73.2658 13.0675 77.739 8.44362 83.4686 5.12648C89.2987 1.70883 96.0837 0 103.824 0C112.468 0 119.655 1.70883 125.385 5.12648C131.115 8.44362 135.387 13.0675 138.201 18.9981C141.116 24.9288 142.574 31.8144 142.574 39.6549C142.574 52.4208 139.357 62.3219 132.924 69.3583C126.591 76.2941 116.891 79.762 103.824 79.762ZM83.167 37.0916C83.167 40.2077 84.725 42.4191 87.8411 43.7259C90.9572 44.9321 96.2848 45.5352 103.824 45.5352C111.363 45.5352 116.69 44.9321 119.806 43.7259C122.922 42.4191 124.48 40.2077 124.48 37.0916C124.48 34.076 122.922 31.9651 119.806 30.7589C116.69 29.5527 111.363 28.9496 103.824 28.9496C96.2848 28.9496 90.9572 29.5527 87.8411 30.7589C84.725 31.9651 83.167 34.076 83.167 37.0916Z" fill="#CCBB65"/>
<path d="M204.823 130.067C202.147 135.247 198.258 138.612 193.158 140.163C188.103 141.625 180.999 141.688 171.845 140.354L136.311 134.894C132.318 134.302 128.856 132.57 125.927 129.699C122.998 126.828 121.9 123.15 122.634 118.664C123.229 114.445 125.002 111.232 127.954 109.023C130.905 106.814 134.422 106.029 138.505 106.667L176.999 112.638C181.485 113.372 184.744 113.415 186.776 112.767C188.718 112.073 189.909 110.426 190.348 107.824C190.692 105.626 189.952 103.773 188.128 102.265C186.262 100.622 182.277 99.3553 176.175 98.4655L156.727 95.3763C152.644 94.7379 149.183 93.0063 146.343 90.1814C143.46 87.2211 142.385 83.4979 143.118 79.0118C143.714 74.7937 145.487 71.5802 148.438 69.3713C151.39 67.1624 154.907 66.3771 158.99 67.0155L199.096 73.4796C201.519 73.8264 203.971 73.6789 206.453 73.0373C208.934 72.3957 210.44 70.6848 210.971 67.9044C211.315 65.706 210.688 63.8545 209.089 62.3498C207.536 60.7558 205.302 59.7147 202.387 59.2266C198.439 58.5451 195.137 58.3666 192.48 58.6912C189.87 58.9264 187.527 59.3001 185.452 59.8122C183.424 60.235 181.398 60.433 179.375 60.4063C177.399 60.2902 174.98 59.6064 172.119 58.3548C169.169 57.057 166.968 55.1847 165.517 52.7378C164.023 50.1555 163.25 47.3804 163.199 44.4125C163.195 41.3553 163.931 38.3979 165.407 35.5401C167.668 31.1641 170.964 28.3978 175.295 27.2412C179.583 25.9491 183.692 26.3181 187.621 28.3481C189.05 29.0863 190.81 30.2784 192.901 31.9245C194.993 33.5706 196.836 35.2584 198.432 36.9878L210.127 50.1575C212.742 52.9794 215.354 56.0261 217.963 59.2975C220.529 62.4335 222.689 65.6989 224.443 69.0939C226.242 72.3996 227.389 75.7641 227.884 79.1874C228.288 82.5645 227.637 85.9053 225.93 89.2096C222.978 94.9251 219.128 98.7631 214.382 100.723C209.681 102.595 203.43 102.759 195.628 101.218L194.936 102.557C199.873 106.579 203.436 110.852 205.624 115.376C207.812 119.901 207.545 124.798 204.823 130.067Z" fill="#CCBB65"/>
<path d="M182.009 175.93C180.706 176.409 179.55 176.523 178.541 176.273C177.559 176.013 176.722 175.507 176.032 174.755C175.332 173.977 174.765 173.076 174.33 172.053L173.587 172.326L174.391 174.515C174.784 175.583 174.783 176.589 174.39 177.531C173.998 178.474 173.228 179.156 172.081 179.577C170.883 180.018 169.842 180.001 168.958 179.527C168.1 179.044 167.475 178.268 167.082 177.2L158.811 154.687C158.4 153.567 158.36 152.532 158.691 151.582C159.013 150.606 159.786 149.893 161.01 149.444C162.235 148.994 163.286 149.036 164.163 149.572C165.056 150.072 165.699 150.856 166.091 151.924L170.442 163.767L170.613 163.748C170.472 162.558 170.429 161.435 170.484 160.38C170.566 159.315 170.911 158.36 171.517 157.516C172.124 156.672 173.144 155.987 174.577 155.46C176.792 154.647 178.82 154.936 180.663 156.33C182.496 157.697 183.968 159.892 185.078 162.914C186.352 166.38 186.714 169.218 186.167 171.431C185.636 173.607 184.25 175.107 182.009 175.93ZM171.714 167.469C171.762 167.599 171.81 167.73 171.858 167.86C171.922 167.955 171.991 168.062 172.065 168.183C172.396 168.682 172.862 168.984 173.462 169.089C174.079 169.158 174.935 168.992 176.029 168.59C177.332 168.111 178.146 167.59 178.472 167.027C178.823 166.454 178.85 165.764 178.554 164.956C178.247 164.122 177.788 163.596 177.175 163.378C176.563 163.159 175.605 163.289 174.302 163.768C173.182 164.18 172.414 164.624 171.998 165.103C171.598 165.545 171.439 166.077 171.519 166.698C171.532 166.812 171.549 166.938 171.57 167.078C171.609 167.183 171.656 167.313 171.714 167.469Z" fill="#CCBB65"/>
<path d="M195.32 171.04C193.392 171.748 191.689 171.782 190.212 171.142C188.76 170.492 187.69 169.23 187.001 167.353C186.312 165.477 186.439 163.893 187.384 162.599C188.318 161.28 189.763 160.261 191.717 159.543C192.863 159.122 193.934 158.818 194.93 158.629C195.925 158.441 196.854 158.351 197.714 158.36L197.832 158.317L197.616 157.731C197.396 157.132 197.002 156.744 196.435 156.568C195.858 156.366 195.236 156.402 194.568 156.677C193.916 156.917 193.37 157.162 192.93 157.412C192.516 157.653 192.004 157.989 191.393 158.42C190.257 159.193 189.166 159.564 188.12 159.534C187.074 159.504 186.186 159.018 185.455 158.074C184.73 157.068 184.451 156.106 184.616 155.188C184.808 154.26 185.296 153.415 186.081 152.654C186.745 151.966 187.524 151.31 188.418 150.686C189.339 150.052 190.385 149.519 191.558 149.089C194.971 147.835 197.779 147.749 199.981 148.833C202.2 149.881 204.022 152.346 205.448 156.229L207.674 162.287C208.067 163.355 208.066 164.361 207.673 165.303C207.281 166.246 206.511 166.928 205.364 167.35C204.114 167.809 203.046 167.802 202.163 167.328C201.305 166.845 200.689 166.095 200.316 165.079L199.986 164.18L199.204 164.467C199.453 165.145 199.576 165.883 199.574 166.682C199.598 167.472 199.305 168.245 198.696 169.001C198.113 169.748 196.987 170.427 195.32 171.04ZM192.566 162.337C192.729 162.78 193 163.035 193.379 163.103C193.785 163.16 194.535 162.988 195.63 162.586C196.62 162.223 197.277 161.878 197.601 161.552C197.924 161.226 198.005 160.841 197.842 160.398C197.689 159.981 197.388 159.767 196.94 159.754C196.482 159.715 195.758 159.878 194.768 160.241C193.674 160.643 192.991 160.998 192.719 161.305C192.464 161.576 192.413 161.92 192.566 162.337Z" fill="#CCBB65"/>
<path d="M214.15 164.122C212.925 164.572 211.845 164.569 210.909 164.115C209.973 163.66 209.309 162.899 208.916 161.83L204.206 149.011C203.795 147.89 203.794 146.841 204.203 145.862C204.603 144.858 205.415 144.131 206.64 143.681C207.864 143.231 208.941 143.264 209.87 143.78C210.79 144.271 211.446 145.05 211.838 146.118L212.14 146.939L212.882 146.666C212.479 145.247 212.584 143.922 213.196 142.691C213.809 141.461 214.754 140.611 216.03 140.142C217.307 139.673 218.454 139.695 219.471 140.209C220.513 140.713 221.274 141.616 221.753 142.919C222.203 144.144 222.224 145.289 221.818 146.355C221.411 147.422 220.66 148.156 219.566 148.558C218.654 148.893 217.809 148.967 217.03 148.78C216.268 148.557 215.639 148.212 215.141 147.744C214.269 147.946 213.69 148.262 213.405 148.692C213.136 149.087 213.15 149.688 213.446 150.496L216.577 159.016C216.969 160.084 216.969 161.09 216.576 162.033C216.183 162.976 215.374 163.672 214.15 164.122Z" fill="#CCBB65"/>
</svg>
