<svg
    width="246"
    height="54"
    viewBox="0 0 246 54"
    fill="none"
    xmlns="http://www.w3.org/2000/svg"
>
    <path
    d="M122.959 0C127.651 0 131.552 0.927241 134.662 2.78223C137.772 4.58265 140.091 7.0926 141.618 10.3115C143.2 13.5305 143.991 17.2679 143.991 21.5234C143.991 28.4524 142.246 33.8264 138.754 37.6455C135.317 41.4101 130.052 43.292 122.959 43.292C116.576 43.292 111.474 41.41 107.655 37.6455C103.891 33.8264 102.009 28.4523 102.009 21.5234C102.009 17.2679 102.881 13.5305 104.627 10.3115C106.373 7.09256 108.801 4.58267 111.911 2.78223C115.075 0.92734 118.758 2.23086e-05 122.959 0ZM124.18 14.9062C123.446 14.324 122.541 14.0948 121.466 14.2188C120.434 14.3377 119.604 14.7563 118.976 15.4736C118.347 16.1909 118.168 17.0456 118.438 18.0371L118.85 19.5898C119.011 20.2159 119.028 20.7475 118.9 21.1846C118.751 21.6243 118.391 22.0669 117.819 22.5107L116.652 23.3789C116.241 23.6709 115.87 23.8248 115.538 23.8408C115.184 23.8594 114.914 23.7343 114.728 23.4668C114.377 22.9294 114.609 22.336 115.423 21.6865C115.749 21.4266 116.093 21.1306 116.455 20.7998C116.792 20.4497 117.068 20.0403 117.28 19.5713C117.493 19.1021 117.561 18.5381 117.485 17.8799C117.377 16.9363 117.031 16.2531 116.448 15.8311C115.844 15.4118 115.174 15.1893 114.438 15.1631C113.679 15.1394 112.954 15.3222 112.266 15.7129C111.574 16.0817 111.03 16.6568 110.631 17.4365C110.21 18.2188 110.068 19.2131 110.207 20.4199C110.369 21.8243 110.863 22.9236 111.688 23.7178C112.511 24.4899 113.583 25.0111 114.903 25.2812C116.202 25.5539 117.67 25.6518 119.307 25.5742C119.197 26.1649 119.324 26.6836 119.687 27.1309C120.047 27.5562 120.54 27.8778 121.165 28.0947C121.768 28.3141 122.411 28.3851 123.091 28.3066C123.771 28.2282 124.381 28.0243 124.921 27.6953C125.458 27.3443 125.843 26.9214 126.075 26.4277C126.307 25.9342 126.325 25.4097 126.128 24.8545L133.468 24.0078C134.345 23.9065 135.048 23.5362 135.574 22.8975C136.076 22.2392 136.274 21.4489 136.168 20.5273C136.057 19.5622 135.683 18.8269 135.047 18.3223C134.389 17.8201 133.62 17.6195 132.742 17.7207L125.238 18.5869L125.243 17.1855C125.244 16.2293 124.889 15.4692 124.18 14.9062Z"
    fill="#D0D5DE"></path>
    <path
    d="M111.788 49.4169C111.788 51.1083 112.634 52.3085 114.325 53.0178C116.016 53.6725 118.908 53.9999 123 53.9999C127.092 53.9999 129.983 53.6725 131.675 53.0178C133.366 52.3085 134.212 51.1083 134.212 49.4169C134.212 47.7802 133.366 46.6344 131.675 45.9797C129.983 45.325 127.092 44.9977 123 44.9977C118.908 44.9977 116.016 45.325 114.325 45.9797C112.634 46.6344 111.788 47.7802 111.788 49.4169Z"
    fill="#D0D5DE"></path>
</svg>
