<svg width="100%" height="172" preserveAspectRatio="none" viewBox="0 0 1440 172" fill="none" xmlns="http://www.w3.org/2000/svg">
    <path d="M1312.84 171.897C1311.63 172 1310.4 172 1307.95 172H1048.26H1048.25C1045.91 172 1044.74 172 1043.58 171.906C1042.55 171.823 1041.52 171.683 1040.5 171.489C1039.35 171.271 1038.22 170.961 1035.96 170.339L780.648 100.116L780.638 100.113C775.755 98.7705 773.312 98.0985 770.832 97.8574C768.63 97.6433 766.41 97.6829 764.216 97.9736C761.745 98.3012 759.325 99.0579 754.486 100.572L635.275 137.877C629.793 139.592 627.052 140.45 624.258 140.759C621.779 141.033 619.276 140.985 616.809 140.618C614.029 140.205 611.322 139.245 605.908 137.325L464.217 87.0742C458.395 85.0094 455.483 83.9771 452.497 83.5752C449.849 83.2188 447.164 83.2296 444.519 83.6084C441.539 84.035 438.639 85.0913 432.845 87.2014L432.829 87.207L288.69 139.699C285.815 140.746 284.378 141.27 282.902 141.638C281.592 141.965 280.259 142.2 278.916 142.341C277.404 142.5 275.873 142.5 272.813 142.5H133.491C125.944 142.5 122.17 142.5 118.645 141.602C115.522 140.805 112.552 139.494 109.859 137.722C106.823 135.722 104.282 132.934 99.2014 127.359L99.1962 127.354L12.1035 31.7822L12.0996 31.778C7.62685 26.8698 5.38979 24.415 3.79391 21.6104C2.37819 19.1223 1.33845 16.4381 0.708947 13.6455C-0.000244141 10.4993 -0.000244141 7.1797 -0.000244141 0.5466V0.529297H702H1440L1441.53 104.033C1440.95 115.147 1440.66 120.705 1438.42 125.671C1436.49 129.955 1433.31 133.949 1429.58 136.8C1425.25 140.105 1419.72 141.695 1408.68 144.876L1320.79 170.188L1320.79 170.188C1318.44 170.866 1317.26 171.205 1316.06 171.443C1315 171.655 1313.92 171.806 1312.84 171.897Z" fill="#F7532E"/>
</svg>
