<svg width="405" height="105" viewBox="0 0 405 105" fill="none" xmlns="http://www.w3.org/2000/svg">
    <g opacity="0.3">
        <mask id="path-1-outside-1_2039_1942" maskUnits="userSpaceOnUse" x="0" y="0" width="405" height="105" fill="black">
            <rect fill="white" width="405" height="105"/>
            <path d="M95.6598 34.0953L94.9497 46.7346H98.5001C98.9735 45.1251 99.7309 43.4683 100.772 41.7641C101.814 40.0599 103.187 38.5451 104.891 37.2196C106.69 35.7995 108.82 34.6634 111.281 33.8113C113.743 32.8645 116.631 32.3911 119.944 32.3911C125.625 32.3911 130.311 33.8113 134.004 36.6516C137.696 39.3972 140.442 43.0896 142.241 47.7287H145.365C145.838 46.1192 146.69 44.415 147.921 42.6162C149.247 40.8173 150.951 39.1605 153.034 37.6457C155.117 36.1309 157.483 34.9001 160.134 33.9533C162.88 32.9119 165.91 32.3911 169.223 32.3911C177.176 32.3911 183.33 34.8527 187.685 39.7759C192.04 44.6044 194.218 51.2791 194.218 59.7999V102.83H179.306V67.1847C179.306 59.4212 177.981 53.8827 175.33 50.569C172.774 47.2553 168.324 45.5985 161.981 45.5985C156.395 45.5985 152.134 47.634 149.199 51.7051C146.359 55.6815 144.939 60.9361 144.939 67.4687V102.83H130.027V67.1847C130.027 59.4212 128.702 53.8827 126.051 50.569C123.495 47.2553 119.045 45.5985 112.702 45.5985C107.116 45.5985 102.855 47.634 99.9202 51.7051C97.0799 55.6815 95.6598 60.9361 95.6598 67.4687V102.83H80.7483V34.0953H95.6598Z"/>
            <path d="M251.708 34.0953H266.62L265.91 46.7346H269.46C269.934 45.1251 270.691 43.4683 271.733 41.7641C272.774 40.0599 274.147 38.5451 275.851 37.2196C277.65 35.7995 279.78 34.6634 282.242 33.8113C284.798 32.8645 287.733 32.3911 291.046 32.3911C298.715 32.3911 304.775 34.9474 309.224 40.0599C313.674 45.0778 315.899 52.1785 315.899 61.3621V102.83H300.987V66.0486C300.987 59.0425 299.615 53.8827 296.869 50.569C294.218 47.1606 289.958 45.4565 284.088 45.4565C277.934 45.4565 273.484 47.5394 270.738 51.7051C267.993 55.7762 266.62 61.0307 266.62 67.4687V102.83H251.708V34.0953Z"/>
            <path d="M330.289 66.7586C330.289 61.4568 331.141 56.6283 332.845 52.2732C334.644 47.8234 337.153 44.0363 340.372 40.912C343.591 37.693 347.425 35.1841 351.875 33.3852C356.325 31.5864 361.248 30.687 366.644 30.687C372.041 30.687 376.964 31.5864 381.414 33.3852C385.864 35.1841 389.698 37.693 392.917 40.912C396.136 44.0363 398.598 47.8234 400.302 52.2732C402.101 56.6283 403 61.4568 403 66.7586C403 71.9658 402.101 76.7943 400.302 81.2441C398.598 85.6939 396.136 89.5283 392.917 92.7473C389.698 95.8716 385.864 98.3332 381.414 100.132C376.964 101.931 372.041 102.83 366.644 102.83C361.248 102.83 356.325 101.931 351.875 100.132C347.425 98.3332 343.591 95.8716 340.372 92.7473C337.153 89.5283 334.644 85.6939 332.845 81.2441C331.141 76.7943 330.289 71.9658 330.289 66.7586ZM344.916 66.7586C344.916 70.0723 345.437 73.1493 346.478 75.9896C347.614 78.7352 349.129 81.1021 351.023 83.0903C352.916 85.0785 355.188 86.6407 357.839 87.7768C360.49 88.9129 363.425 89.481 366.644 89.481C369.863 89.481 372.798 88.9129 375.449 87.7768C378.1 86.6407 380.372 85.0785 382.266 83.0903C384.254 81.1021 385.769 78.7352 386.81 75.9896C387.852 73.1493 388.372 70.0723 388.372 66.7586C388.372 63.445 387.852 60.4153 386.81 57.6697C385.769 54.8294 384.254 52.4152 382.266 50.427C380.372 48.4388 378.1 46.8766 375.449 45.7405C372.798 44.6044 369.863 44.0363 366.644 44.0363C363.425 44.0363 360.49 44.6044 357.839 45.7405C355.188 46.8766 352.916 48.4388 351.023 50.427C349.129 52.4152 347.614 54.8294 346.478 57.6697C345.437 60.4153 344.916 63.445 344.916 66.7586Z"/>
            <path d="M219.144 102.983V33.3629H233.012V102.983H219.144ZM208.049 45.8447V33.3629H233.012V45.8447H208.049Z"/>
            <path d="M2 102.501V2H17.0806V30.0732C17.0806 36.6122 17.8498 46.3795 15.0653 58.5317L17.5743 60.4643H34.9473L53.9773 30.0732H68.4628C68.4628 30.0732 51.1345 59.0594 47.9645 60.6444C47.8951 61.348 47.8707 62.4525 47.8707 62.4525C54.6874 64.4407 59.9892 68.1804 63.7763 73.6717C67.658 79.0682 69.5989 85.3642 69.5989 92.5596V102.501H56.3915V92.5596C56.3915 88.5832 55.4921 85.0328 53.6933 81.9085C51.9891 78.7842 49.5748 76.3226 46.4505 74.5237C43.3262 72.7249 25.7747 71.7392 25.7747 71.7392H17.0806L15.0653 102.501H2Z"/>
            <path d="M219.055 4.27322C217.067 5.70631 216.074 7.87906 216.074 10.7915C216.074 13.6576 217.067 15.8073 219.055 17.2404C221.043 18.6734 222.915 19.39 224.672 19.39C226.475 19.39 228.37 18.6734 230.358 17.2404C232.346 15.8073 233.34 13.6576 233.34 10.7915C233.34 7.87906 232.346 5.70631 230.358 4.27322C228.37 2.84013 226.475 2.12359 224.672 2.12359C222.915 2.12359 221.043 2.84013 219.055 4.27322Z"/>
        </mask>
        <path d="M95.6598 34.0953L97.6566 34.2075L97.7753 32.0953H95.6598V34.0953ZM94.9497 46.7346L92.9529 46.6224L92.8342 48.7346H94.9497V46.7346ZM98.5001 46.7346V48.7346H99.9966L100.419 47.2989L98.5001 46.7346ZM100.772 41.7641L102.479 42.807V42.807L100.772 41.7641ZM104.891 37.2196L106.119 38.7983L106.124 38.7939L106.13 38.7894L104.891 37.2196ZM111.281 33.8113L111.936 35.7013L111.968 35.6902L111.999 35.678L111.281 33.8113ZM134.004 36.6516L132.784 38.2368L132.797 38.2468L132.81 38.2565L134.004 36.6516ZM142.241 47.7287L140.376 48.4518L140.871 49.7287H142.241V47.7287ZM145.365 47.7287V49.7287H146.861L147.284 48.293L145.365 47.7287ZM147.921 42.6162L146.311 41.4298L146.29 41.458L146.27 41.4868L147.921 42.6162ZM160.134 33.9533L160.807 35.8368L160.825 35.8302L160.844 35.8233L160.134 33.9533ZM187.685 39.7759L186.187 41.101L186.194 41.1083L186.2 41.1154L187.685 39.7759ZM194.218 102.83V104.83H196.218V102.83H194.218ZM179.306 102.83H177.306V104.83H179.306V102.83ZM175.33 50.569L173.746 51.7906L173.757 51.8046L173.768 51.8184L175.33 50.569ZM149.199 51.7051L147.577 50.5355L147.572 50.5426L149.199 51.7051ZM144.939 102.83V104.83H146.939V102.83H144.939ZM130.027 102.83H128.027V104.83H130.027V102.83ZM126.051 50.569L124.467 51.7906L124.478 51.8046L124.489 51.8184L126.051 50.569ZM99.9202 51.7051L98.2978 50.5355L98.2927 50.5426L99.9202 51.7051ZM95.6598 102.83V104.83H97.6598V102.83H95.6598ZM80.7483 102.83H78.7483V104.83H80.7483V102.83ZM80.7483 34.0953V32.0953H78.7483V34.0953H80.7483ZM251.708 34.0953V32.0953H249.708V34.0953H251.708ZM266.62 34.0953L268.617 34.2075L268.735 32.0953H266.62V34.0953ZM265.91 46.7346L263.913 46.6224L263.794 48.7346H265.91V46.7346ZM269.46 46.7346V48.7346H270.957L271.379 47.2989L269.46 46.7346ZM271.733 41.7641L273.439 42.807V42.807L271.733 41.7641ZM275.851 37.2196L277.079 38.7983L277.085 38.7939L277.09 38.7894L275.851 37.2196ZM282.242 33.8113L282.896 35.7013L282.916 35.6942L282.936 35.6868L282.242 33.8113ZM309.224 40.0599L307.716 41.373L307.722 41.38L307.728 41.3869L309.224 40.0599ZM315.899 102.83V104.83H317.899V102.83H315.899ZM300.987 102.83H298.987V104.83H300.987V102.83ZM296.869 50.569L295.29 51.7969L295.309 51.8212L295.329 51.845L296.869 50.569ZM270.738 51.7051L272.397 52.8234L272.402 52.8146L272.408 52.8057L270.738 51.7051ZM266.62 102.83V104.83H268.62V102.83H266.62ZM251.708 102.83H249.708V104.83H251.708V102.83ZM332.845 52.2732L330.991 51.5236L330.986 51.534L330.982 51.5444L332.845 52.2732ZM340.372 40.912L341.765 42.3472L341.775 42.3368L341.786 42.3262L340.372 40.912ZM351.875 33.3852L351.125 31.531L351.875 33.3852ZM381.414 33.3852L380.664 35.2395L381.414 33.3852ZM392.917 40.912L391.503 42.3262L391.513 42.3368L391.524 42.3472L392.917 40.912ZM400.302 52.2732L398.434 52.9885L398.443 53.0127L398.453 53.0367L400.302 52.2732ZM400.302 81.2441L398.447 80.4945L398.441 80.5116L398.434 80.5288L400.302 81.2441ZM392.917 92.7473L394.31 94.1825L394.321 94.1721L394.331 94.1615L392.917 92.7473ZM381.414 100.132L380.664 98.2778L381.414 100.132ZM351.875 100.132L351.125 101.986L351.875 100.132ZM340.372 92.7473L338.957 94.1615L338.968 94.1721L338.979 94.1825L340.372 92.7473ZM332.845 81.2441L330.977 81.9594L330.984 81.9766L330.991 81.9937L332.845 81.2441ZM346.478 75.9896L344.6 76.6781L344.615 76.7165L344.63 76.7543L346.478 75.9896ZM351.023 83.0903L349.574 84.4696V84.4696L351.023 83.0903ZM357.839 87.7768L357.052 89.6151L357.839 87.7768ZM382.266 83.0903L380.852 81.6761L380.834 81.6933L380.818 81.711L382.266 83.0903ZM386.81 75.9896L388.68 76.6989L388.684 76.6885L388.688 76.6781L386.81 75.9896ZM386.81 57.6697L384.933 58.3582L384.936 58.3686L384.94 58.379L386.81 57.6697ZM382.266 50.427L380.818 51.8063L380.834 51.824L380.852 51.8412L382.266 50.427ZM357.839 45.7405L357.052 43.9022L357.839 45.7405ZM351.023 50.427L349.574 49.0477V49.0477L351.023 50.427ZM346.478 57.6697L344.621 56.9269L344.615 56.9436L344.608 56.9604L346.478 57.6697ZM219.144 102.983H217.144V104.983H219.144V102.983ZM219.144 33.3629V31.3629H217.144V33.3629H219.144ZM233.012 33.3629H235.012V31.3629H233.012V33.3629ZM233.012 102.983V104.983H235.012V102.983H233.012ZM208.049 45.8447H206.049V47.8447H208.049V45.8447ZM208.049 33.3629V31.3629H206.049V33.3629H208.049ZM233.012 45.8447V47.8447H235.012V45.8447H233.012ZM2 102.501H0V104.501H2V102.501ZM2 2V0H0V2H2ZM17.0806 2H19.0806V0H17.0806V2ZM15.0653 58.5317L13.1159 58.085L12.8296 59.3342L13.8449 60.1162L15.0653 58.5317ZM34.9473 60.4643V62.4643H36.0547L36.6425 61.5257L34.9473 60.4643ZM53.9773 30.0732V28.0732H52.8699L52.2822 29.0118L53.9773 30.0732ZM68.4628 30.0732L70.1794 31.0994L71.9885 28.0732H68.4628V30.0732ZM47.8707 62.4525L45.8712 62.4084L45.8373 63.9428L47.3107 64.3725L47.8707 62.4525ZM63.7763 73.6717L62.1299 74.8071L62.1411 74.8234L62.1527 74.8395L63.7763 73.6717ZM69.5989 102.501V104.501H71.5989V102.501H69.5989ZM56.3915 102.501H54.3915V104.501H56.3915V102.501ZM53.6933 81.9085L51.9375 82.8662L51.9485 82.8864L51.96 82.9064L53.6933 81.9085ZM17.0806 71.7392V69.7392H15.2073L15.0849 71.6085L17.0806 71.7392ZM15.0653 102.501V104.501H16.9386L17.0611 102.631L15.0653 102.501ZM25.7747 71.7392L25.8869 69.7424L25.8309 69.7392H25.7747V71.7392ZM17.5743 60.4643L16.3539 62.0488L16.8933 62.4643H17.5743V60.4643ZM47.9645 60.6444L47.0701 58.8555L46.0826 59.3492L45.9742 60.448L47.9645 60.6444ZM219.055 4.27322L217.886 2.65087V2.65087L219.055 4.27322ZM230.358 4.27322L231.528 2.65087V2.65087L230.358 4.27322ZM230.358 17.2404L231.528 18.8627L230.358 17.2404ZM219.055 17.2404L217.886 18.8627L219.055 17.2404ZM95.6598 34.0953L93.6629 33.9831L92.9529 46.6224L94.9497 46.7346L96.9466 46.8468L97.6566 34.2075L95.6598 34.0953ZM94.9497 46.7346V48.7346H98.5001V46.7346V44.7346H94.9497V46.7346ZM98.5001 46.7346L100.419 47.2989C100.834 45.8859 101.512 44.3891 102.479 42.807L100.772 41.7641L99.0657 40.7212C97.9497 42.5474 97.1125 44.3643 96.5813 46.1703L98.5001 46.7346ZM100.772 41.7641L102.479 42.807C103.385 41.325 104.59 39.9876 106.119 38.7983L104.891 37.2196L103.663 35.6409C101.784 37.1026 100.243 38.7949 99.0657 40.7212L100.772 41.7641ZM104.891 37.2196L106.13 38.7894C107.731 37.5255 109.657 36.49 111.936 35.7013L111.281 33.8113L110.627 31.9213C107.983 32.8368 105.648 34.0735 103.651 35.6499L104.891 37.2196ZM111.281 33.8113L111.999 35.678C114.181 34.8387 116.816 34.3911 119.944 34.3911V32.3911V30.3911C116.446 30.3911 113.304 30.8903 110.563 31.9446L111.281 33.8113ZM119.944 32.3911V34.3911C125.283 34.3911 129.513 35.7203 132.784 38.2368L134.004 36.6516L135.223 35.0663C131.11 31.9022 125.967 30.3911 119.944 30.3911V32.3911ZM134.004 36.6516L132.81 38.2565C136.176 40.759 138.702 44.1342 140.376 48.4518L142.241 47.7287L144.105 47.0057C142.182 42.0449 139.216 38.0354 135.197 35.0467L134.004 36.6516ZM142.241 47.7287V49.7287H145.365V47.7287V45.7287H142.241V47.7287ZM145.365 47.7287L147.284 48.293C147.683 46.9347 148.426 45.4202 149.572 43.7456L147.921 42.6162L146.27 41.4868C144.955 43.4099 143.993 45.3038 143.446 47.1644L145.365 47.7287ZM147.921 42.6162L149.531 43.8026C150.718 42.1918 152.268 40.6754 154.21 39.2631L153.034 37.6457L151.857 36.0282C149.633 37.6456 147.775 39.4429 146.311 41.4298L147.921 42.6162ZM153.034 37.6457L154.21 39.2631C156.125 37.8705 158.319 36.7253 160.807 35.8368L160.134 33.9533L159.462 32.0698C156.648 33.0749 154.108 34.3912 151.857 36.0282L153.034 37.6457ZM160.134 33.9533L160.844 35.8233C163.335 34.8781 166.121 34.3911 169.223 34.3911V32.3911V30.3911C165.698 30.3911 162.424 30.9456 159.425 32.0833L160.134 33.9533ZM169.223 32.3911V34.3911C176.734 34.3911 182.291 36.6962 186.187 41.101L187.685 39.7759L189.183 38.4507C184.369 33.0092 177.618 30.3911 169.223 30.3911V32.3911ZM187.685 39.7759L186.2 41.1154C190.132 45.4744 192.218 51.6167 192.218 59.7999H194.218H196.218C196.218 50.9415 193.949 43.7344 189.17 38.4364L187.685 39.7759ZM194.218 59.7999H192.218V102.83H194.218H196.218V59.7999H194.218ZM194.218 102.83V100.83H179.306V102.83V104.83H194.218V102.83ZM179.306 102.83H181.306V67.1847H179.306H177.306V102.83H179.306ZM179.306 67.1847H181.306C181.306 59.2984 179.98 53.1806 176.892 49.3196L175.33 50.569L173.768 51.8184C175.981 54.5847 177.306 59.544 177.306 67.1847H179.306ZM175.33 50.569L176.913 49.3474C173.815 45.3311 168.615 43.5985 161.981 43.5985V45.5985V47.5985C168.032 47.5985 171.732 49.1796 173.746 51.7906L175.33 50.569ZM161.981 45.5985V43.5985C155.836 43.5985 150.934 45.8783 147.577 50.5355L149.199 51.7051L150.822 52.8747C153.334 49.3898 156.953 47.5985 161.981 47.5985V45.5985ZM149.199 51.7051L147.572 50.5426C144.419 54.9558 142.939 60.6577 142.939 67.4687H144.939H146.939C146.939 61.2144 148.298 56.4072 150.827 52.8676L149.199 51.7051ZM144.939 67.4687H142.939V102.83H144.939H146.939V67.4687H144.939ZM144.939 102.83V100.83H130.027V102.83V104.83H144.939V102.83ZM130.027 102.83H132.027V67.1847H130.027H128.027V102.83H130.027ZM130.027 67.1847H132.027C132.027 59.2984 130.701 53.1806 127.613 49.3196L126.051 50.569L124.489 51.8184C126.702 54.5847 128.027 59.544 128.027 67.1847H130.027ZM126.051 50.569L127.634 49.3474C124.536 45.3311 119.336 43.5985 112.702 43.5985V45.5985V47.5985C118.753 47.5985 122.453 49.1796 124.467 51.7906L126.051 50.569ZM112.702 45.5985V43.5985C106.557 43.5985 101.655 45.8783 98.2979 50.5355L99.9202 51.7051L101.543 52.8747C104.055 49.3898 107.674 47.5985 112.702 47.5985V45.5985ZM99.9202 51.7051L98.2927 50.5426C95.1405 54.9558 93.6598 60.6577 93.6598 67.4687H95.6598H97.6598C97.6598 61.2144 99.0194 56.4072 101.548 52.8676L99.9202 51.7051ZM95.6598 67.4687H93.6598V102.83H95.6598H97.6598V67.4687H95.6598ZM95.6598 102.83V100.83H80.7483V102.83V104.83H95.6598V102.83ZM80.7483 102.83H82.7483V34.0953H80.7483H78.7483V102.83H80.7483ZM80.7483 34.0953V36.0953H95.6598V34.0953V32.0953H80.7483V34.0953ZM251.708 34.0953V36.0953H266.62V34.0953V32.0953H251.708V34.0953ZM266.62 34.0953L264.623 33.9831L263.913 46.6224L265.91 46.7346L267.907 46.8468L268.617 34.2075L266.62 34.0953ZM265.91 46.7346V48.7346H269.46V46.7346V44.7346H265.91V46.7346ZM269.46 46.7346L271.379 47.2989C271.795 45.8859 272.472 44.3891 273.439 42.807L271.733 41.7641L270.026 40.7212C268.91 42.5474 268.073 44.3643 267.542 46.1703L269.46 46.7346ZM271.733 41.7641L273.439 42.807C274.345 41.325 275.55 39.9876 277.079 38.7983L275.851 37.2196L274.623 35.6409C272.744 37.1026 271.203 38.7949 270.026 40.7212L271.733 41.7641ZM275.851 37.2196L277.09 38.7894C278.691 37.5255 280.617 36.49 282.896 35.7013L282.242 33.8113L281.587 31.9213C278.943 32.8368 276.608 34.0735 274.612 35.6499L275.851 37.2196ZM282.242 33.8113L282.936 35.6868C285.228 34.838 287.92 34.3911 291.046 34.3911V32.3911V30.3911C287.545 30.3911 284.368 30.8911 281.547 31.9358L282.242 33.8113ZM291.046 32.3911V34.3911C298.221 34.3911 303.698 36.757 307.716 41.373L309.224 40.0599L310.733 38.7469C305.851 33.1378 299.209 30.3911 291.046 30.3911V32.3911ZM309.224 40.0599L307.728 41.3869C311.75 45.9227 313.899 52.486 313.899 61.3621H315.899H317.899C317.899 51.871 315.598 44.2329 310.721 38.733L309.224 40.0599ZM315.899 61.3621H313.899V102.83H315.899H317.899V61.3621H315.899ZM315.899 102.83V100.83H300.987V102.83V104.83H315.899V102.83ZM300.987 102.83H302.987V66.0486H300.987H298.987V102.83H300.987ZM300.987 66.0486H302.987C302.987 58.8489 301.589 53.1304 298.409 49.293L296.869 50.569L295.329 51.845C297.641 54.6349 298.987 59.2362 298.987 66.0486H300.987ZM296.869 50.569L298.448 49.3411C295.293 45.2847 290.338 43.4565 284.088 43.4565V45.4565V47.4565C289.578 47.4565 293.143 49.0366 295.29 51.7969L296.869 50.569ZM284.088 45.4565V43.4565C277.44 43.4565 272.273 45.7425 269.068 50.6045L270.738 51.7051L272.408 52.8057C274.695 49.3362 278.427 47.4565 284.088 47.4565V45.4565ZM270.738 51.7051L269.08 50.5868C266.052 55.077 264.62 60.7546 264.62 67.4687H266.62H268.62C268.62 61.3069 269.934 56.4754 272.397 52.8234L270.738 51.7051ZM266.62 67.4687H264.62V102.83H266.62H268.62V67.4687H266.62ZM266.62 102.83V100.83H251.708V102.83V104.83H266.62V102.83ZM251.708 102.83H253.708V34.0953H251.708H249.708V102.83H251.708ZM330.289 66.7586H332.289C332.289 61.6731 333.105 57.0959 334.707 53.002L332.845 52.2732L330.982 51.5444C329.176 56.1607 328.289 61.2405 328.289 66.7586H330.289ZM332.845 52.2732L334.699 53.0227C336.401 48.8128 338.759 45.2643 341.765 42.3472L340.372 40.912L338.979 39.4769C335.546 42.8084 332.886 46.834 330.991 51.5236L332.845 52.2732ZM340.372 40.912L341.786 42.3262C344.805 39.3072 348.41 36.9433 352.624 35.2395L351.875 33.3852L351.125 31.531C346.44 33.4249 342.376 36.0788 338.957 39.4978L340.372 40.912ZM351.875 33.3852L352.624 35.2395C356.808 33.5482 361.473 32.687 366.644 32.687V30.687V28.687C361.023 28.687 355.841 29.6246 351.125 31.531L351.875 33.3852ZM366.644 30.687V32.687C371.816 32.687 376.48 33.5482 380.664 35.2395L381.414 33.3852L382.163 31.531C377.448 29.6246 372.266 28.687 366.644 28.687V30.687ZM381.414 33.3852L380.664 35.2395C384.879 36.9433 388.484 39.3072 391.503 42.3262L392.917 40.912L394.331 39.4978C390.912 36.0788 386.848 33.4249 382.163 31.531L381.414 33.3852ZM392.917 40.912L391.524 42.3472C394.521 45.2564 396.827 48.7931 398.434 52.9885L400.302 52.2732L402.169 51.5579C400.368 46.8537 397.75 42.8162 394.31 39.4769L392.917 40.912ZM400.302 52.2732L398.453 53.0367C400.14 57.1212 401 61.686 401 66.7586H403H405C405 61.2275 404.061 56.1354 402.15 51.5096L400.302 52.2732ZM403 66.7586H401C401 71.7309 400.142 76.3025 398.447 80.4945L400.302 81.2441L402.156 81.9937C404.059 77.2862 405 72.2008 405 66.7586H403ZM400.302 81.2441L398.434 80.5288C396.825 84.7289 394.514 88.3219 391.503 91.3331L392.917 92.7473L394.331 94.1615C397.758 90.7347 400.37 86.6589 402.169 81.9594L400.302 81.2441ZM392.917 92.7473L391.524 91.3121C388.503 94.2442 384.891 96.569 380.664 98.2778L381.414 100.132L382.163 101.986C386.836 100.097 390.893 97.499 394.31 94.1825L392.917 92.7473ZM381.414 100.132L380.664 98.2778C376.48 99.9691 371.816 100.83 366.644 100.83V102.83V104.83C372.266 104.83 377.448 103.893 382.163 101.986L381.414 100.132ZM366.644 102.83V100.83C361.473 100.83 356.808 99.9691 352.624 98.2778L351.875 100.132L351.125 101.986C355.841 103.893 361.023 104.83 366.644 104.83V102.83ZM351.875 100.132L352.624 98.2778C348.397 96.569 344.786 94.2442 341.765 91.3121L340.372 92.7473L338.979 94.1825C342.396 97.499 346.453 100.097 351.125 101.986L351.875 100.132ZM340.372 92.7473L341.786 91.3331C338.767 88.3141 336.403 84.7092 334.699 80.4945L332.845 81.2441L330.991 81.9937C332.885 86.6786 335.538 90.7425 338.957 94.1615L340.372 92.7473ZM332.845 81.2441L334.713 80.5288C333.104 76.3277 332.289 71.7441 332.289 66.7586H330.289H328.289C328.289 72.1876 329.178 77.261 330.977 81.9594L332.845 81.2441ZM344.916 66.7586H342.916C342.916 70.2848 343.471 73.5972 344.6 76.6781L346.478 75.9896L348.356 75.3011C347.403 72.7014 346.916 69.8598 346.916 66.7586H344.916ZM346.478 75.9896L344.63 76.7543C345.853 79.7088 347.497 82.2888 349.574 84.4696L351.023 83.0903L352.471 81.711C350.761 79.9155 349.376 77.7616 348.326 75.2249L346.478 75.9896ZM351.023 83.0903L349.574 84.4696C351.664 86.6638 354.164 88.3777 357.052 89.6151L357.839 87.7768L358.627 85.9385C356.212 84.9036 354.168 83.4932 352.471 81.711L351.023 83.0903ZM357.839 87.7768L357.052 89.6151C359.979 90.8696 363.186 91.481 366.644 91.481V89.481V87.481C363.665 87.481 361.002 86.9562 358.627 85.9385L357.839 87.7768ZM366.644 89.481V91.481C370.103 91.481 373.31 90.8696 376.237 89.6151L375.449 87.7768L374.661 85.9385C372.287 86.9562 369.624 87.481 366.644 87.481V89.481ZM375.449 87.7768L376.237 89.6151C379.124 88.3777 381.624 86.6638 383.714 84.4696L382.266 83.0903L380.818 81.711C379.12 83.4932 377.076 84.9036 374.661 85.9385L375.449 87.7768ZM382.266 83.0903L383.68 84.5045C385.877 82.3074 387.543 79.6971 388.68 76.6989L386.81 75.9896L384.94 75.2803C383.995 77.7733 382.631 79.8969 380.852 81.6761L382.266 83.0903ZM386.81 75.9896L388.688 76.6781C389.818 73.5972 390.372 70.2848 390.372 66.7586H388.372H386.372C386.372 69.8598 385.886 72.7014 384.933 75.3011L386.81 75.9896ZM388.372 66.7586H390.372C390.372 63.2335 389.818 59.9598 388.68 56.9604L386.81 57.6697L384.94 58.379C385.886 60.8708 386.372 63.6564 386.372 66.7586H388.372ZM386.81 57.6697L388.688 56.9812C387.554 53.8893 385.889 51.2216 383.68 49.0128L382.266 50.427L380.852 51.8412C382.619 53.6087 383.983 55.7696 384.933 58.3582L386.81 57.6697ZM382.266 50.427L383.714 49.0477C381.624 46.8535 379.124 45.1395 376.237 43.9022L375.449 45.7405L374.661 47.5788C377.076 48.6137 379.12 50.0241 380.818 51.8063L382.266 50.427ZM375.449 45.7405L376.237 43.9022C373.31 42.6477 370.103 42.0363 366.644 42.0363V44.0363V46.0363C369.624 46.0363 372.287 46.5611 374.661 47.5788L375.449 45.7405ZM366.644 44.0363V42.0363C363.186 42.0363 359.979 42.6477 357.052 43.9022L357.839 45.7405L358.627 47.5788C361.002 46.5611 363.665 46.0363 366.644 46.0363V44.0363ZM357.839 45.7405L357.052 43.9022C354.164 45.1395 351.664 46.8535 349.574 49.0477L351.023 50.427L352.471 51.8063C354.168 50.0241 356.212 48.6137 358.627 47.5788L357.839 45.7405ZM351.023 50.427L349.574 49.0477C347.486 51.24 345.841 53.8773 344.621 56.9269L346.478 57.6697L348.335 58.4125C349.388 55.7815 350.772 53.5904 352.471 51.8063L351.023 50.427ZM346.478 57.6697L344.608 56.9604C343.471 59.9598 342.916 63.2335 342.916 66.7586H344.916H346.916C346.916 63.6564 347.403 60.8709 348.348 58.379L346.478 57.6697ZM219.144 102.983H221.144V33.3629H219.144H217.144V102.983H219.144ZM219.144 33.3629V35.3629H233.012V33.3629V31.3629H219.144V33.3629ZM233.012 33.3629H231.012V102.983H233.012H235.012V33.3629H233.012ZM233.012 102.983V100.983H219.144V102.983V104.983H233.012V102.983ZM208.049 45.8447H210.049V33.3629H208.049H206.049V45.8447H208.049ZM208.049 33.3629V35.3629H233.012V33.3629V31.3629H208.049V33.3629ZM233.012 33.3629H231.012V45.8447H233.012H235.012V33.3629H233.012ZM233.012 45.8447V43.8447H208.049V45.8447V47.8447H233.012V45.8447ZM2 102.501H4V2H2H0V102.501H2ZM2 2V4H17.0806V2V0H2V2ZM34.9473 60.4643L36.6425 61.5257L55.6724 31.1346L53.9773 30.0732L52.2822 29.0118L33.2522 59.4029L34.9473 60.4643ZM53.9773 30.0732V32.0732H68.4628V30.0732V28.0732H53.9773V30.0732ZM47.8707 62.4525L47.3107 64.3725C53.7164 66.2409 58.6215 69.72 62.1299 74.8071L63.7763 73.6717L65.4227 72.5362C61.3569 66.6408 55.6583 62.6406 48.4307 60.5325L47.8707 62.4525ZM63.7763 73.6717L62.1527 74.8395C65.7692 79.8674 67.5989 85.7468 67.5989 92.5596H69.5989H71.5989C71.5989 84.9815 69.5468 78.269 65.3999 72.5038L63.7763 73.6717ZM69.5989 92.5596H67.5989V102.501H69.5989H71.5989V92.5596H69.5989ZM69.5989 102.501V100.501H56.3915V102.501V104.501H69.5989V102.501ZM56.3915 102.501H58.3915V92.5596H56.3915H54.3915V102.501H56.3915ZM56.3915 92.5596H58.3915C58.3915 88.2699 57.4177 84.369 55.4265 80.9106L53.6933 81.9085L51.96 82.9064C53.5665 85.6967 54.3915 88.8964 54.3915 92.5596H56.3915ZM53.6933 81.9085L55.449 80.9508C53.5661 77.4987 50.8876 74.7706 47.4484 72.7905L46.4505 74.5237L45.4526 76.257C48.2621 77.8746 50.4121 80.0697 51.9375 82.8662L53.6933 81.9085ZM17.0806 71.7392L15.0849 71.6085L13.0696 102.37L15.0653 102.501L17.0611 102.631L19.0763 71.87L17.0806 71.7392ZM15.0653 102.501V100.501H2V102.501V104.501H15.0653V102.501ZM25.7747 71.7392V69.7392H17.0806V71.7392V73.7392H25.7747V71.7392ZM15.0653 58.5317L13.8449 60.1162L16.3539 62.0488L17.5743 60.4643L18.7948 58.8799L16.2858 56.9473L15.0653 58.5317ZM17.5743 60.4643V62.4643H34.9473V60.4643V58.4643H17.5743V60.4643ZM17.0806 2H15.0806V30.0732H17.0806H19.0806V2H17.0806ZM17.0806 30.0732H15.0806C15.0806 36.7525 15.8358 46.2145 13.1159 58.085L15.0653 58.5317L17.0148 58.9784C19.8638 46.5446 19.0806 36.472 19.0806 30.0732H17.0806ZM25.7747 71.7392C25.6626 73.7361 25.6626 73.7361 25.6626 73.7361C25.6627 73.7361 25.6628 73.7361 25.663 73.7361C25.6635 73.7361 25.6641 73.7362 25.6651 73.7362C25.667 73.7363 25.6699 73.7365 25.6739 73.7367C25.6818 73.7372 25.6939 73.7379 25.7101 73.7388C25.7424 73.7407 25.7908 73.7435 25.8544 73.7473C25.9815 73.7548 26.1693 73.7661 26.4099 73.7812C26.8911 73.8114 27.5833 73.8565 28.4241 73.9163C30.107 74.036 32.3793 74.214 34.7447 74.4473C37.116 74.6811 39.5531 74.9679 41.575 75.3029C42.5872 75.4706 43.4674 75.6458 44.1698 75.8253C44.9154 76.0159 45.31 76.1749 45.4526 76.257L46.4505 74.5237L47.4484 72.7905C46.81 72.4229 45.9726 72.1575 45.1604 71.9499C44.3049 71.7312 43.3014 71.5344 42.2287 71.3567C40.081 71.0009 37.5445 70.704 35.1373 70.4666C32.7243 70.2286 30.4135 70.0477 28.7079 69.9264C27.8544 69.8657 27.151 69.8198 26.6601 69.789C26.4147 69.7736 26.2223 69.762 26.0909 69.7542C26.0251 69.7504 25.9746 69.7474 25.9403 69.7454C25.9231 69.7445 25.91 69.7437 25.9011 69.7432C25.8966 69.7429 25.8932 69.7427 25.8908 69.7426C25.8896 69.7425 25.8887 69.7425 25.888 69.7425C25.8877 69.7424 25.8874 69.7424 25.8873 69.7424C25.887 69.7424 25.8869 69.7424 25.7747 71.7392ZM47.9645 60.6444L45.9742 60.448C45.9335 60.8601 45.9083 61.36 45.8932 61.7312C45.8854 61.9223 45.88 62.0899 45.8764 62.2101C45.8747 62.2703 45.8734 62.3189 45.8725 62.3529C45.8721 62.3699 45.8717 62.3832 45.8715 62.3926C45.8714 62.3973 45.8713 62.401 45.8713 62.4036C45.8712 62.4049 45.8712 62.406 45.8712 62.4068C45.8712 62.4072 45.8712 62.4075 45.8712 62.4078C45.8712 62.4079 45.8712 62.408 45.8712 62.4081C45.8712 62.4082 45.8712 62.4082 45.8712 62.4082C45.8712 62.4083 45.8712 62.4084 47.8707 62.4525C49.8702 62.4967 49.8702 62.4967 49.8702 62.4967C49.8702 62.4968 49.8702 62.4968 49.8702 62.4968C49.8702 62.4968 49.8702 62.4969 49.8702 62.4968C49.8702 62.4968 49.8702 62.4968 49.8702 62.4966C49.8702 62.4964 49.8702 62.4958 49.8702 62.495C49.8703 62.4935 49.8703 62.4909 49.8704 62.4873C49.8706 62.4801 49.8708 62.4691 49.8712 62.4545C49.8719 62.4253 49.8731 62.3821 49.8747 62.3278C49.8779 62.2189 49.8829 62.0664 49.8899 61.8934C49.9044 61.5365 49.9261 61.1323 49.9548 60.8408L47.9645 60.6444ZM47.9645 60.6444L48.8589 62.4332C49.3579 62.1837 49.7988 61.7847 50.1273 61.458C50.4935 61.0939 50.8888 60.6458 51.2996 60.1467C52.1233 59.146 53.0932 57.8371 54.14 56.3504C56.2378 53.371 58.721 49.5676 61.0906 45.8367C63.4633 42.101 65.735 38.4174 67.4127 35.6692C68.2518 34.2946 68.943 33.1531 69.4245 32.3549C69.6653 31.9558 69.8537 31.6424 69.9821 31.4286C70.0463 31.3217 70.0955 31.2396 70.1287 31.1842C70.1453 31.1565 70.1579 31.1354 70.1664 31.1212C70.1706 31.1141 70.1738 31.1087 70.176 31.1051C70.1771 31.1033 70.1779 31.1019 70.1785 31.101C70.1788 31.1005 70.179 31.1001 70.1791 31.0999C70.1793 31.0996 70.1794 31.0994 68.4628 30.0732C66.7461 29.047 66.7461 29.047 66.746 29.0472C66.7459 29.0474 66.7457 29.0477 66.7454 29.0481C66.7449 29.0489 66.7442 29.0502 66.7432 29.0519C66.7412 29.0553 66.7381 29.0604 66.734 29.0672C66.7258 29.0809 66.7135 29.1014 66.6973 29.1286C66.6647 29.183 66.6162 29.2639 66.5527 29.3697C66.4257 29.5812 66.2387 29.8922 65.9995 30.2887C65.521 31.0818 64.8336 32.2173 63.9986 33.585C62.3282 36.3212 60.0698 39.9832 57.7141 43.6922C55.3554 47.4059 52.9122 51.1462 50.8694 54.0475C49.8459 55.5012 48.942 56.7169 48.2112 57.6047C47.8448 58.0499 47.5428 58.387 47.3068 58.6217C47.0333 58.8937 46.9673 58.9069 47.0701 58.8555L47.9645 60.6444ZM216.074 10.7915H218.074C218.074 8.38426 218.861 6.87892 220.225 5.89557L219.055 4.27322L217.886 2.65087C215.274 4.5337 214.074 7.37385 214.074 10.7915H216.074ZM219.055 4.27322L220.225 5.89557C222.003 4.61369 223.472 4.12359 224.672 4.12359V2.12359V0.123586C222.359 0.123586 220.083 1.06658 217.886 2.65087L219.055 4.27322ZM224.672 2.12359V4.12359C225.928 4.12359 227.421 4.62142 229.189 5.89557L230.358 4.27322L231.528 2.65087C229.319 1.05884 227.022 0.123586 224.672 0.123586V2.12359ZM230.358 4.27322L229.189 5.89557C230.553 6.87892 231.34 8.38426 231.34 10.7915H233.34H235.34C235.34 7.37385 234.139 4.5337 231.528 2.65087L230.358 4.27322ZM233.34 10.7915H231.34C231.34 13.1393 230.562 14.6281 229.189 15.618L230.358 17.2404L231.528 18.8627C234.13 16.9864 235.34 14.176 235.34 10.7915H233.34ZM230.358 17.2404L229.189 15.618C227.421 16.8922 225.928 17.39 224.672 17.39V19.39V21.39C227.022 21.39 229.319 20.4547 231.528 18.8627L230.358 17.2404ZM224.672 19.39V17.39C223.472 17.39 222.003 16.8999 220.225 15.618L219.055 17.2404L217.886 18.8627C220.083 20.447 222.359 21.39 224.672 21.39V19.39ZM219.055 17.2404L220.225 15.618C218.852 14.6281 218.074 13.1393 218.074 10.7915H216.074H214.074C214.074 14.176 215.283 16.9864 217.886 18.8627L219.055 17.2404Z" fill="#F4F1D2" mask="url(#path-1-outside-1_2039_1942)"/>
    </g>
</svg>
