<svg width="36" height="36" viewBox="0 0 36 36" fill="none" xmlns="http://www.w3.org/2000/svg">
    <circle cx="18" cy="18" r="18" fill="white"/>
    <path d="M18.1126 3.59961C22.3478 10.4657 29.0697 21.0616 30.751 21.9016C30.8054 22.4528 30.8249 23.3154 30.8251 23.3278C25.4421 24.8965 21.2553 27.8474 18.2647 32.18C18.2127 32.2522 18.1638 32.327 18.1126 32.3996C18.0615 32.327 18.0126 32.2522 17.9606 32.18C14.9699 27.8474 10.7832 24.8965 5.40015 23.3278C5.40042 23.3154 5.41985 22.4528 5.47426 21.9016C7.15564 21.0616 13.8775 10.4657 18.1126 3.59961Z" fill="#F7532E"/>
    <path d="M16.0794 18.7784C15.3596 19.2973 14.9998 20.084 14.9998 21.1386C14.9998 22.1764 15.3596 22.9548 16.0794 23.4737C16.7992 23.9926 17.4771 24.2521 18.1132 24.2521C18.7661 24.2521 19.4524 23.9926 20.1722 23.4737C20.8919 22.9548 21.2518 22.1764 21.2518 21.1386C21.2518 20.084 20.8919 19.2973 20.1722 18.7784C19.4524 18.2595 18.7661 18 18.1132 18C17.4771 18 16.7992 18.2595 16.0794 18.7784Z" fill="white"/>
</svg>
