<svg width="146" height="28" viewBox="0 0 146 28" fill="none" xmlns="http://www.w3.org/2000/svg">
    <title>kmino logo</title>
    <circle cx="12" cy="14" r="12" fill="white"/>
    <path d="M12.0751 4.4C14.8986 8.97741 19.3798 16.0413 20.5007 16.6013C20.537 16.9688 20.5499 17.5438 20.5501 17.5521C16.9614 18.598 14.1702 20.5652 12.1765 23.4536C12.1418 23.5018 12.1092 23.5516 12.0751 23.6C12.041 23.5516 12.0084 23.5018 11.9737 23.4536C9.97997 20.5652 7.18878 18.598 3.6001 17.5521C3.60028 17.5438 3.61323 16.9688 3.64951 16.6013C4.77043 16.0413 9.25164 8.97741 12.0751 4.4Z" fill="#F7532E"/>
    <path d="M10.7198 14.5189C10.2399 14.8649 10 15.3893 10 16.0924C10 16.7843 10.2399 17.3032 10.7198 17.6491C11.1996 17.9951 11.6516 18.168 12.0757 18.168C12.5109 18.168 12.9684 17.9951 13.4483 17.6491C13.9281 17.3032 14.168 16.7843 14.168 16.0924C14.168 15.3893 13.9281 14.8649 13.4483 14.5189C12.9684 14.173 12.5109 14 12.0757 14C11.6516 14 11.1996 14.173 10.7198 14.5189Z" fill="white"/>
    <path d="M59.987 8.89917L59.7902 12.4037H60.7746C60.9058 11.9574 61.1158 11.4981 61.4046 11.0255C61.6934 10.553 62.074 10.133 62.5465 9.76546C63.0453 9.37169 63.636 9.05668 64.3185 8.82042C65.001 8.5579 65.8017 8.42665 66.7205 8.42665C68.2956 8.42665 69.595 8.82042 70.6188 9.60796C71.6426 10.3692 72.4039 11.393 72.9027 12.6794H73.769C73.9002 12.2331 74.1365 11.7606 74.4778 11.2618C74.8453 10.763 75.3178 10.3036 75.8953 9.88359C76.4729 9.46357 77.1291 9.12231 77.8642 8.85979C78.6255 8.57103 79.4655 8.42665 80.3843 8.42665C82.5894 8.42665 84.2957 9.10918 85.5033 10.4742C86.7109 11.8131 87.3147 13.6638 87.3147 16.0264V27.9576H83.1801V18.074C83.1801 15.9214 82.8125 14.3857 82.0775 13.4669C81.3687 12.5481 80.1349 12.0887 78.3761 12.0887C76.8273 12.0887 75.6459 12.6531 74.8322 13.7819C74.0446 14.8845 73.6508 16.3414 73.6508 18.1528V27.9576H69.5163V18.074C69.5163 15.9214 69.1487 14.3857 68.4137 13.4669C67.7049 12.5481 66.4711 12.0887 64.7123 12.0887C63.1634 12.0887 61.9821 12.6531 61.1683 13.7819C60.3808 14.8845 59.987 16.3414 59.987 18.1528V27.9576H55.8525V8.89917H59.987Z" fill="white"/>
    <path d="M103.255 8.89917H107.39L107.193 12.4037H108.177C108.309 11.9574 108.519 11.4981 108.807 11.0255C109.096 10.553 109.477 10.133 109.949 9.76546C110.448 9.37169 111.039 9.05668 111.721 8.82042C112.43 8.5579 113.244 8.42665 114.163 8.42665C116.289 8.42665 117.969 9.13543 119.203 10.553C120.437 11.9443 121.054 13.9132 121.054 16.4595V27.9576H116.919V17.759C116.919 15.8164 116.538 14.3857 115.777 13.4669C115.042 12.5219 113.861 12.0493 112.233 12.0493C110.527 12.0493 109.293 12.6269 108.532 13.7819C107.771 14.9107 107.39 16.3677 107.39 18.1528V27.9576H103.255V8.89917Z" fill="white"/>
    <path d="M125.044 17.9559C125.044 16.4858 125.28 15.147 125.752 13.9394C126.251 12.7056 126.947 11.6556 127.839 10.7893C128.732 9.89672 129.795 9.20106 131.029 8.70229C132.263 8.20351 133.628 7.95412 135.124 7.95412C136.62 7.95412 137.985 8.20351 139.219 8.70229C140.453 9.20106 141.516 9.89672 142.409 10.7893C143.301 11.6556 143.984 12.7056 144.456 13.9394C144.955 15.147 145.205 16.4858 145.205 17.9559C145.205 19.3997 144.955 20.7385 144.456 21.9723C143.984 23.2061 143.301 24.2693 142.409 25.1619C141.516 26.0282 140.453 26.7107 139.219 27.2095C137.985 27.7082 136.62 27.9576 135.124 27.9576C133.628 27.9576 132.263 27.7082 131.029 27.2095C129.795 26.7107 128.732 26.0282 127.839 25.1619C126.947 24.2693 126.251 23.2061 125.752 21.9723C125.28 20.7385 125.044 19.3997 125.044 17.9559ZM129.099 17.9559C129.099 18.8747 129.244 19.7278 129.533 20.5154C129.848 21.2767 130.268 21.9329 130.793 22.4842C131.318 23.0355 131.948 23.4686 132.683 23.7837C133.418 24.0987 134.232 24.2562 135.124 24.2562C136.017 24.2562 136.83 24.0987 137.565 23.7837C138.301 23.4686 138.931 23.0355 139.456 22.4842C140.007 21.9329 140.427 21.2767 140.716 20.5154C141.004 19.7278 141.149 18.8747 141.149 17.9559C141.149 17.0371 141.004 16.197 140.716 15.4357C140.427 14.6482 140.007 13.9788 139.456 13.4275C138.931 12.8762 138.301 12.4431 137.565 12.1281C136.83 11.8131 136.017 11.6556 135.124 11.6556C134.232 11.6556 133.418 11.8131 132.683 12.1281C131.948 12.4431 131.318 12.8762 130.793 13.4275C130.268 13.9788 129.848 14.6482 129.533 15.4357C129.244 16.197 129.099 17.0371 129.099 17.9559Z" fill="white"/>
    <path d="M94.2259 28V8.6961H98.0713V28H94.2259ZM91.1496 12.157V8.6961H98.0713V12.157H91.1496Z" fill="white"/>
    <path d="M34.0176 27.8662V-3.8147e-05H38.199V7.78394C38.199 9.59705 38.4123 12.3053 37.6403 15.6748L38.3359 16.2106H43.153L48.4295 7.78394H52.446C52.446 7.78394 47.6413 15.8211 46.7624 16.2605C46.7431 16.4556 46.7363 16.7619 46.7363 16.7619C48.6264 17.3132 50.0965 18.3501 51.1466 19.8727C52.2229 21.369 52.761 23.1147 52.761 25.1098V27.8662H49.099V25.1098C49.099 24.0073 48.8496 23.0228 48.3508 22.1565C47.8783 21.2902 47.2089 20.6077 46.3426 20.1089C45.4763 19.6102 40.6097 19.3369 40.6097 19.3369H38.199L37.6403 27.8662H34.0176Z" fill="white"/>
    <path d="M94.2014 0.630267C93.6503 1.02763 93.3747 1.63007 93.3747 2.43761C93.3747 3.23233 93.6503 3.82836 94.2014 4.22572C94.7526 4.62308 95.2717 4.82176 95.7588 4.82176C96.2587 4.82176 96.7843 4.62308 97.3354 4.22572C97.8866 3.82836 98.1622 3.23233 98.1622 2.43761C98.1622 1.63007 97.8866 1.02763 97.3354 0.630267C96.7843 0.232909 96.2587 0.034229 95.7588 0.034229C95.2717 0.034229 94.7526 0.232909 94.2014 0.630267Z" fill="white"/>
</svg>
