<svg width="1440" height="1101" viewBox="0 0 1440 1101" fill="none" xmlns="http://www.w3.org/2000/svg">
    <path d="M-175.249 614.956L111.058 504.124L149.961 489.08L498.207 354.153L607.042 984.476L584.358 1041.24L276.073 868.237L108.59 774.211L-175.249 614.956Z" stroke="#EDEEE8" stroke-width="5" stroke-miterlimit="10"/>
    <path d="M108.59 774.211L111.058 504.123L161.127 484.73L255.975 801.126L276.072 868.236L368.57 920.068L580.127 828.981L583.418 848.256L806.375 856.836L1091.39 960.499H1242.89L1260.99 854.25L1367.24 780.44L1381.46 577.11V279.168L1310.59 135.896L1248.06 9.66748L1141.93 96.5234L1232.19 186.2L1356.89 310.196L1227.96 455.465L1141.93 552.429L1128.88 509.647L1051.19 518.815L1031.8 479.912L1220.91 338.756L1070.59 152.233L1016.29 178.09L1087.51 281.753L1099.15 292.096L1294.72 143.183" stroke="#EDEEE8" stroke-width="5" stroke-miterlimit="10"/>
    <path d="M1016.29 178.091L895.817 273.997L1031.8 479.913" stroke="#EDEEE8" stroke-width="5" stroke-miterlimit="10"/>
    <path d="M498.208 354.153L683.908 316.778L895.817 273.996" stroke="#EDEEE8" stroke-width="5" stroke-miterlimit="10"/>
    <path d="M519.833 479.91L685.906 456.639L683.908 316.776" stroke="#EDEEE8" stroke-width="5" stroke-miterlimit="10"/>
    <path d="M584.358 1041.24L647.238 1087.55L757.953 1169.12L834.466 1070.86L717.522 995.759L696.954 860.01L635.132 640.343L685.906 456.641" stroke="#EDEEE8" stroke-width="5" stroke-miterlimit="10"/>
    <path d="M550.039 654.797H639.128" stroke="#EDEEE8" stroke-width="5" stroke-miterlimit="10"/>
    <path d="M635.132 640.341L1249.12 682.3" stroke="#EDEEE8" stroke-width="5" stroke-miterlimit="10"/>
    <path d="M1314.11 588.393V755.993" stroke="#EDEEE8" stroke-width="5" stroke-miterlimit="10"/>
    <path d="M1368.53 761.87L1140.75 755.993L1141.93 552.428" stroke="#EDEEE8" stroke-width="5" stroke-miterlimit="10"/>
    <path d="M1091.39 960.499L1120.54 849.902L1360.42 857.072L1367.24 780.441L1353.96 974.368L1344.44 1112.82L1221.73 1100.13L1254.64 1088.26L1260.64 978.482" stroke="#EDEEE8" stroke-width="5" stroke-miterlimit="10"/>
    <path d="M834.466 1070.86L1070 1169.12L1136.4 1144.55L1202.93 1119.99L1221.73 1100.13" stroke="#EDEEE8" stroke-width="5" stroke-miterlimit="10"/>
    <path d="M825.886 1027.49L1136.4 1144.55" stroke="#EDEEE8" stroke-width="5" stroke-miterlimit="10"/>
    <path d="M1060.01 949.098L1005.83 1095.42V1125.87L1007.59 1143.14" stroke="#EDEEE8" stroke-width="5" stroke-miterlimit="10"/>
    <path d="M1015.35 932.879L963.751 1079.56V1119.99" stroke="#EDEEE8" stroke-width="5" stroke-miterlimit="10"/>
    <path d="M867.727 1041.24V976.953L915.68 896.561" stroke="#EDEEE8" stroke-width="5" stroke-miterlimit="10"/>
    <path d="M963.75 914.074L942.124 1002.93L792.624 949.099V856.366" stroke="#EDEEE8" stroke-width="5" stroke-miterlimit="10"/>
    <path d="M782.517 1027.49V929.705H655.347V890.332H635.132V850.254" stroke="#EDEEE8" stroke-width="5" stroke-miterlimit="10"/>
    <path d="M867.727 885.984L840.225 949.099L831.41 963.085" stroke="#EDEEE8" stroke-width="5" stroke-miterlimit="10"/>
    <path d="M915.68 661.263V697.697V751.409L834.466 739.774L1091.39 774.211V672.193" stroke="#EDEEE8" stroke-width="5" stroke-miterlimit="10"/>
    <path d="M902.987 647.865V574.996H849.51V450.765H810.372V485.084L915.68 493.311V588.394L1140.75 598.855" stroke="#EDEEE8" stroke-width="5" stroke-miterlimit="10"/>
    <path d="M1076.11 671.943V588.395H1060.01V537.974H1047.79L1051.19 518.816" stroke="#EDEEE8" stroke-width="5" stroke-miterlimit="10"/>
    <path d="M981.145 591.449V530.333" stroke="#EDEEE8" stroke-width="5" stroke-miterlimit="10"/>
    <path d="M857.267 647.863L861.615 574.993" stroke="#EDEEE8" stroke-width="5" stroke-miterlimit="10"/>
    <path d="M902.986 638.345V657.385" stroke="#EDEEE8" stroke-width="5" stroke-miterlimit="10"/>
    <path d="M857.972 634.936L857.267 655.504" stroke="#EDEEE8" stroke-width="5" stroke-miterlimit="10"/>
    <path d="M679.559 643.399V542.204L663.104 539.148" stroke="#EDEEE8" stroke-width="5" stroke-miterlimit="10"/>
    <path d="M726.219 646.57V560.89H735.269L738.795 473.446L685.906 469.803" stroke="#EDEEE8" stroke-width="5" stroke-miterlimit="10"/>
    <path d="M760.421 648.923V566.768H772.291V539.148H793.8L796.268 479.912V450.765L738.795 473.448" stroke="#EDEEE8" stroke-width="5" stroke-miterlimit="10"/>
    <path d="M573.075 787.961H676.738L663.104 739.773H834.466L846.454 654.797" stroke="#EDEEE8" stroke-width="5" stroke-miterlimit="10"/>
    <path d="M679.559 797.954H810.371L806.375 856.837" stroke="#EDEEE8" stroke-width="5" stroke-miterlimit="10"/>
    <path d="M834.465 739.773V777.03H818.011V856.364" stroke="#EDEEE8" stroke-width="5" stroke-miterlimit="10"/>
    <path d="M604.338 991.175L671.684 1041.24L717.521 995.759L643.006 1084.49" stroke="#EDEEE8" stroke-width="5" stroke-miterlimit="10"/>
    <path d="M704.005 1129.39L774.877 1032.55L785.455 1023.38" stroke="#EDEEE8" stroke-width="5" stroke-miterlimit="10"/>
    <path d="M31.6069 678.423L108.59 641.988" stroke="#EDEEE8" stroke-width="5" stroke-miterlimit="10"/>
    <path d="M228.002 682.301L533.702 611.429" stroke="#EDEEE8" stroke-width="5" stroke-miterlimit="10"/>
    <path d="M405.357 896.561L359.873 834.152L307.688 885.983" stroke="#EDEEE8" stroke-width="5" stroke-miterlimit="10"/>
    <path d="M255.975 801.126L564.143 736.249L663.104 739.775" stroke="#EDEEE8" stroke-width="5" stroke-miterlimit="10"/>
    <path d="M464.828 751.292L405.357 591.449L255.975 638.344L273.839 671.606" stroke="#EDEEE8" stroke-width="5" stroke-miterlimit="10"/>
    <path d="M241.048 751.292L341.773 719.558L441.44 688.177" stroke="#EDEEE8" stroke-width="5" stroke-miterlimit="10"/>
    <path d="M322.968 660.204L341.773 719.557" stroke="#EDEEE8" stroke-width="5" stroke-miterlimit="10"/>
    <path d="M229.765 681.831L222.713 684.064" stroke="#EDEEE8" stroke-width="5" stroke-miterlimit="10"/>
    <path d="M274.545 445.356L329.315 469.803L507.375 407.864" stroke="#EDEEE8" stroke-width="5" stroke-miterlimit="10"/>
    <path d="M1126.65 845.318L1148.27 759.049L1068.71 771.155L1020.75 932.879" stroke="#EDEEE8" stroke-width="5" stroke-miterlimit="10"/>
    <path d="M1220.32 450.764L1099.15 292.097" stroke="#EDEEE8" stroke-width="5" stroke-miterlimit="10"/>
    <path d="M1281.56 395.053L1210.1 329" stroke="#EDEEE8" stroke-width="5" stroke-miterlimit="10"/>
    <path d="M1099.15 429.608L1150.63 492.488L1171.08 463.693L1198.34 488.844" stroke="#EDEEE8" stroke-width="5" stroke-miterlimit="10"/>
</svg>
