<svg width="36" height="36" viewBox="0 0 36 36" fill="none" xmlns="http://www.w3.org/2000/svg">
  <path d="M18 36C27.9411 36 36 27.9411 36 18C36 8.05887 27.9411 0 18 0C8.05887 0 0 8.05887 0 18C0 27.9411 8.05887 36 18 36Z" fill="#1A1A1A"/>
  <path d="M23.8572 21.3088C25.2406 22.1096 27.0042 23.0562 27.2469 24.9007C29.0833 24.4153 31.8096 23.8328 31.1139 22.1986C30.2483 18.453 28.25 15.1281 26.7696 11.5928C26.6644 11.342 26.5835 11.0508 26.535 10.7838C26.357 9.83729 26.6968 8.93122 26.7858 7.96853C26.4298 8.01707 24.8604 8.01707 23.9624 9.11729C23.9381 9.14965 23.7602 8.01707 24.3588 6.81976C23.3638 6.52044 15.5813 9.9101 12.9763 16.649C12.9116 15.0957 13.5426 12.4422 15.6784 9.49752C18.979 4.93482 24.3507 4.32808 27.8051 5.12898C27.2065 4.8701 27.1175 4.70021 25.7422 4.21482C24.9332 3.93167 23.7602 3.70516 23.2343 3.70516C13.7611 3.68089 7.62084 9.27909 7.11927 19.1568C6.73904 26.6643 14.8775 31.7123 23.4204 31.7366C26.3732 31.7447 28.3148 30.418 29.9166 29.2045C21.1795 27.9505 17.1345 25.0948 21.1633 17.4741C20.7184 18.3236 21.2847 19.8202 23.8572 21.3088ZM25.5076 13.0813C25.5157 13.0975 25.5238 13.1056 25.5238 13.1218C25.5318 13.1137 25.5318 13.1056 25.5399 13.1056C26.3004 14.6508 26.988 16.0665 27.6838 17.4822C27.433 17.3932 27.1903 17.28 26.9638 17.1586C25.2244 16.2202 24.4963 14.3838 25.5076 13.0813Z" fill="url(#paint0_linear_3116_812)"/>
  <path d="M20.1761 3.71335C18.9141 3.86706 17.7006 4.19065 16.5599 4.65986C15.0067 3.81043 13.3159 3.17133 11.5442 2.78301C12.3936 2.36234 14.4323 2.17627 15.4273 2.17627C17.5469 2.50795 18.3397 2.75065 20.1761 3.71335Z" fill="url(#paint1_linear_3116_812)"/>
  <path d="M15.8966 4.95111C15.8561 4.97538 15.8076 4.99156 15.7671 5.01583C14.8125 5.47695 13.9145 6.04324 13.0894 6.69852C11.5038 6.26976 9.83724 6.04324 8.1141 6.04324C7.72578 6.04324 7.34556 6.05133 6.96533 6.0756C8.10601 4.92684 11.1963 3.67291 12.604 3.6001C13.7608 3.96414 14.3271 4.12594 15.8966 4.95111Z" fill="url(#paint2_linear_3116_812)"/>
  <path d="M12.4908 7.20805C12.4099 7.28086 12.329 7.35367 12.2481 7.42648C12.1591 7.50738 12.0782 7.58828 11.9973 7.66917C11.4876 8.16266 11.0184 8.69659 10.5977 9.27097C7.9766 9.5703 5.51728 10.3955 3.33301 11.6413C4.04492 9.85344 7.11908 6.94917 8.47009 6.69839C9.06065 6.64176 11.0831 6.87636 12.4908 7.20805Z" fill="url(#paint3_linear_3116_812)"/>
  <path d="M10.2256 9.78076C10.1124 9.94256 10.0072 10.1124 9.89394 10.2823C9.82114 10.3956 9.74833 10.5169 9.68361 10.6302C9.32765 11.2369 9.01215 11.876 8.74518 12.5394C6.21305 13.6315 3.96406 15.2576 2.13574 17.272C2.20046 15.5084 4.30383 11.7223 5.28271 11.3583C5.28271 11.3583 7.65305 10.1286 10.2256 9.78076Z" fill="url(#paint4_linear_3116_812)"/>
  <path d="M8.46193 13.3325C8.42148 13.4458 8.38912 13.5671 8.34867 13.6804C8.30822 13.8017 8.27586 13.9312 8.2435 14.0525C8.09788 14.5945 7.97653 15.1527 7.89564 15.719C5.71946 17.8143 4.03676 20.4193 3.04979 23.3478C2.45923 21.6327 2.34597 19.2058 3.63227 16.7626C3.63227 16.7384 6.55271 14.2386 8.46193 13.3325Z" fill="url(#paint5_linear_3116_812)"/>
  <path d="M6.28592 27.5058C6.28592 28.0155 6.3021 28.517 6.34255 29.0186C5.08053 27.5948 4.08547 24.2051 4.24727 22.393C5.1857 20.0955 6.64997 17.9435 7.76637 16.7705C7.75828 16.8757 7.75019 16.9808 7.75019 17.0941C7.73401 17.3368 7.73401 17.5795 7.73401 17.8222C7.73401 18.5179 7.78255 19.1975 7.87963 19.8608C6.8603 22.1988 6.28592 24.7876 6.28592 27.5058Z" fill="url(#paint6_linear_3116_812)"/>
  <path d="M11.7141 33.0552C9.93432 32.2058 8.01702 30.2318 6.96533 27.2386C6.96533 27.2386 7.18376 22.6274 8.04938 20.8071C8.05747 20.8314 8.05747 20.8476 8.06556 20.8718C8.1141 21.1065 8.17073 21.3411 8.23544 21.5676C8.68848 23.226 9.43275 24.7712 10.4197 26.1303C10.4197 28.5734 10.8808 30.9114 11.7141 33.0552Z" fill="url(#paint7_linear_3116_812)"/>
  <path d="M17.8706 34.6493C15.8805 34.5279 13.7447 33.2012 12.0135 31.8502C11.3987 30.7985 11.0185 28.3068 10.8647 26.7212C10.889 26.7455 10.9052 26.7778 10.9295 26.8021C11.0589 26.9639 11.1964 27.1176 11.334 27.2713C12.3695 28.4362 13.591 29.4313 14.9582 30.1998C15.0068 30.2241 15.0472 30.2484 15.0958 30.2727C15.8158 31.8583 16.7542 33.3306 17.8706 34.6493Z" fill="url(#paint8_linear_3116_812)"/>
  <path d="M23.5496 34.0342C22.3846 34.4063 20.7828 34.916 17.5954 33.5973C16.5599 32.3758 16.5276 32.1007 15.8237 30.6445C17.2152 31.3079 18.7361 31.7609 20.3379 31.9389C20.4835 31.9551 20.621 31.9713 20.7667 31.9794C21.6161 32.7641 22.5464 33.4517 23.5496 34.0342Z" fill="url(#paint9_linear_3116_812)"/>
  <path d="M27.3763 4.67611C27.0769 4.55477 26.7776 4.44151 26.4702 4.33634C26.3731 4.30398 26.276 4.27162 26.179 4.23926C24.8684 3.83477 22.4738 3.60825 21.0338 3.60016C18.8414 2.48375 17.4095 1.77184 14.8289 1.57769C17.2154 1.1651 19.0599 1.41589 20.0711 1.53724C22.223 1.81229 24.6581 2.62937 27.3763 4.67611Z" fill="url(#paint10_linear_3116_812)"/>
  <path d="M29.6332 29.7788C29.253 30.4826 26.1384 33.0148 23.3636 33.3707C22.4656 32.8449 22.409 32.7073 21.6323 32.0278C21.7375 32.0278 21.8427 32.0278 21.9478 32.0278C22.4009 32.0278 22.8458 32.0035 23.2908 31.9631C23.3312 31.9631 23.3716 31.955 23.4121 31.955C24.3829 31.8579 25.3213 31.6638 26.2193 31.3806C26.3002 31.3563 26.373 31.3321 26.4539 31.3078C26.7775 31.2026 27.093 31.0813 27.4085 30.9518C28.1851 30.6282 28.9294 30.2318 29.6332 29.7788Z" fill="url(#paint11_linear_3116_812)"/>
  <defs>
    <linearGradient id="paint0_linear_3116_812" x1="-12.3398" y1="41.9609" x2="67.3815" y2="-14.6284" gradientUnits="userSpaceOnUse">
      <stop offset="0.1856" stop-color="#19EBCE"/>
      <stop offset="0.2654" stop-color="#21DCD0"/>
      <stop offset="0.4196" stop-color="#36B4D4"/>
      <stop offset="0.6329" stop-color="#5873DB"/>
      <stop offset="0.8947" stop-color="#871BE5"/>
      <stop offset="0.9103" stop-color="#8A15E6"/>
    </linearGradient>
    <linearGradient id="paint1_linear_3116_812" x1="2.86137" y1="34.3848" x2="17.2615" y2="-0.108591" gradientUnits="userSpaceOnUse">
      <stop offset="0.1856" stop-color="#19EBCE"/>
      <stop offset="0.2654" stop-color="#21DCD0"/>
      <stop offset="0.4196" stop-color="#36B4D4"/>
      <stop offset="0.6329" stop-color="#5873DB"/>
      <stop offset="0.8947" stop-color="#871BE5"/>
      <stop offset="0.9103" stop-color="#8A15E6"/>
    </linearGradient>
    <linearGradient id="paint2_linear_3116_812" x1="-0.105156" y1="33.1464" x2="14.295" y2="-1.34703" gradientUnits="userSpaceOnUse">
      <stop offset="0.1856" stop-color="#19EBCE"/>
      <stop offset="0.2654" stop-color="#21DCD0"/>
      <stop offset="0.4196" stop-color="#36B4D4"/>
      <stop offset="0.6329" stop-color="#5873DB"/>
      <stop offset="0.8947" stop-color="#871BE5"/>
      <stop offset="0.9103" stop-color="#8A15E6"/>
    </linearGradient>
    <linearGradient id="paint3_linear_3116_812" x1="-1.71154" y1="32.4756" x2="12.6886" y2="-2.01782" gradientUnits="userSpaceOnUse">
      <stop offset="0.1856" stop-color="#19EBCE"/>
      <stop offset="0.2654" stop-color="#21DCD0"/>
      <stop offset="0.4196" stop-color="#36B4D4"/>
      <stop offset="0.6329" stop-color="#5873DB"/>
      <stop offset="0.8947" stop-color="#871BE5"/>
      <stop offset="0.9103" stop-color="#8A15E6"/>
    </linearGradient>
    <linearGradient id="paint4_linear_3116_812" x1="-1.85811" y1="32.4145" x2="12.542" y2="-2.07889" gradientUnits="userSpaceOnUse">
      <stop offset="0.1856" stop-color="#19EBCE"/>
      <stop offset="0.2654" stop-color="#21DCD0"/>
      <stop offset="0.4196" stop-color="#36B4D4"/>
      <stop offset="0.6329" stop-color="#5873DB"/>
      <stop offset="0.8947" stop-color="#871BE5"/>
      <stop offset="0.9103" stop-color="#8A15E6"/>
    </linearGradient>
    <linearGradient id="paint5_linear_3116_812" x1="-1.13414" y1="32.7171" x2="13.266" y2="-1.77632" gradientUnits="userSpaceOnUse">
      <stop offset="0.1856" stop-color="#19EBCE"/>
      <stop offset="0.2654" stop-color="#21DCD0"/>
      <stop offset="0.4196" stop-color="#36B4D4"/>
      <stop offset="0.6329" stop-color="#5873DB"/>
      <stop offset="0.8947" stop-color="#871BE5"/>
      <stop offset="0.9103" stop-color="#8A15E6"/>
    </linearGradient>
    <linearGradient id="paint6_linear_3116_812" x1="1.84797" y1="33.9617" x2="16.2481" y2="-0.531635" gradientUnits="userSpaceOnUse">
      <stop offset="0.1856" stop-color="#19EBCE"/>
      <stop offset="0.2654" stop-color="#21DCD0"/>
      <stop offset="0.4196" stop-color="#36B4D4"/>
      <stop offset="0.6329" stop-color="#5873DB"/>
      <stop offset="0.8947" stop-color="#871BE5"/>
      <stop offset="0.9103" stop-color="#8A15E6"/>
    </linearGradient>
    <linearGradient id="paint7_linear_3116_812" x1="6.18797" y1="35.7734" x2="20.5881" y2="1.28002" gradientUnits="userSpaceOnUse">
      <stop offset="0.1856" stop-color="#19EBCE"/>
      <stop offset="0.2654" stop-color="#21DCD0"/>
      <stop offset="0.4196" stop-color="#36B4D4"/>
      <stop offset="0.6329" stop-color="#5873DB"/>
      <stop offset="0.8947" stop-color="#871BE5"/>
      <stop offset="0.9103" stop-color="#8A15E6"/>
    </linearGradient>
    <linearGradient id="paint8_linear_3116_812" x1="11.3446" y1="37.9265" x2="25.7448" y2="3.43312" gradientUnits="userSpaceOnUse">
      <stop offset="0.1856" stop-color="#19EBCE"/>
      <stop offset="0.2654" stop-color="#21DCD0"/>
      <stop offset="0.4196" stop-color="#36B4D4"/>
      <stop offset="0.6329" stop-color="#5873DB"/>
      <stop offset="0.8947" stop-color="#871BE5"/>
      <stop offset="0.9103" stop-color="#8A15E6"/>
    </linearGradient>
    <linearGradient id="paint9_linear_3116_812" x1="16.4623" y1="40.0628" x2="30.8625" y2="5.56942" gradientUnits="userSpaceOnUse">
      <stop offset="0.1856" stop-color="#19EBCE"/>
      <stop offset="0.2654" stop-color="#21DCD0"/>
      <stop offset="0.4196" stop-color="#36B4D4"/>
      <stop offset="0.6329" stop-color="#5873DB"/>
      <stop offset="0.8947" stop-color="#871BE5"/>
      <stop offset="0.9103" stop-color="#8A15E6"/>
    </linearGradient>
    <linearGradient id="paint10_linear_3116_812" x1="7.2826" y1="36.2305" x2="21.6827" y2="1.73716" gradientUnits="userSpaceOnUse">
      <stop offset="0.1856" stop-color="#19EBCE"/>
      <stop offset="0.2654" stop-color="#21DCD0"/>
      <stop offset="0.4196" stop-color="#36B4D4"/>
      <stop offset="0.6329" stop-color="#5873DB"/>
      <stop offset="0.8947" stop-color="#871BE5"/>
      <stop offset="0.9103" stop-color="#8A15E6"/>
    </linearGradient>
    <linearGradient id="paint11_linear_3116_812" x1="21.0154" y1="41.9635" x2="35.4156" y2="7.47011" gradientUnits="userSpaceOnUse">
      <stop offset="0.1856" stop-color="#19EBCE"/>
      <stop offset="0.2654" stop-color="#21DCD0"/>
      <stop offset="0.4196" stop-color="#36B4D4"/>
      <stop offset="0.6329" stop-color="#5873DB"/>
      <stop offset="0.8947" stop-color="#871BE5"/>
      <stop offset="0.9103" stop-color="#8A15E6"/>
    </linearGradient>
  </defs>
</svg>
