<svg width="91" height="91" viewBox="0 0 91 91" fill="none" xmlns="http://www.w3.org/2000/svg">
    <path d="M1.85693 36.1038L2.34867 34.6023L6.82382 36.0664C7.2055 36.1916 7.51649 36.3118 7.75883 36.4279C8.00016 36.544 8.18191 36.643 8.30308 36.7248L8.50199 36.5521L6.53099 32.7565L7.12472 30.941L8.49998 33.6552C8.54541 33.744 8.59489 33.85 8.64942 33.9732C8.70394 34.0964 8.75443 34.2236 8.80088 34.3549C8.84732 34.4862 8.88872 34.6104 8.92406 34.7275C8.9594 34.8446 8.98263 34.9365 8.99172 35.0032L9.17751 35.0637C9.32291 34.879 9.5299 34.7043 9.80051 34.5397C10.0711 34.3751 10.3246 34.2519 10.5619 34.1711L14.1373 32.9191L13.5244 34.7921L9.60664 36.0745L10.1691 37.161L12.4995 37.9233L12.0078 39.4248L1.85693 36.1038Z" fill="currentColor"/>
    <path d="M8.93206 26.9788L9.99531 27.7967L10.2074 27.4867C10.0953 27.3494 9.99531 27.1838 9.90847 26.9909C9.82163 26.7981 9.77014 26.584 9.75499 26.3487C9.73984 26.1135 9.7661 25.861 9.83476 25.5924C9.90342 25.3238 10.0367 25.0442 10.2346 24.7544C10.5739 24.2576 10.9768 23.9314 11.4412 23.7749C11.9067 23.6194 12.3954 23.6012 12.9084 23.7214L13.0952 23.4478C12.9831 23.3104 12.8862 23.1317 12.8054 22.9126C12.7246 22.6935 12.6802 22.4471 12.6721 22.1745C12.664 21.9019 12.6974 21.6181 12.7721 21.3223C12.8468 21.0264 12.9831 20.7346 13.181 20.4448C13.6566 19.7491 14.2372 19.3573 14.9248 19.2675C15.6114 19.1786 16.3274 19.3886 17.0725 19.8975L20.8358 22.4703L19.9442 23.7749L16.8272 21.6434C16.1486 21.1789 15.5862 20.9618 15.1409 20.9911C14.6956 21.0204 14.2826 21.3132 13.904 21.8675C13.5698 22.3562 13.493 22.847 13.6718 23.3397C13.8515 23.8335 14.2261 24.2747 14.7976 24.6655L17.8904 26.7799L16.9988 28.0845L13.8818 25.9529C13.2032 25.4884 12.6408 25.2713 12.1955 25.3006C11.7502 25.3299 11.3372 25.6227 10.9586 26.1771C10.6244 26.6658 10.5476 27.1565 10.7264 27.6493C10.9061 28.143 11.2807 28.5843 11.8522 28.975L14.945 31.0894L14.0534 32.394L8.04248 28.2844L8.93408 26.9798L8.93206 26.9788Z" fill="currentColor"/>
    <path d="M16.29 15.7072L15.2671 14.6046L16.5464 13.4171L17.5693 14.5198L16.29 15.7072ZM22.1161 21.8757L17.1745 16.5271L18.3215 15.4629L23.2743 20.8013L22.1161 21.8757Z" fill="currentColor"/>
    <path d="M20.2412 13.6837L21.5529 12.8022L22.2375 13.9553L22.5495 13.7453C22.4959 13.5756 22.4646 13.3858 22.4556 13.1738C22.4465 12.9627 22.4778 12.7446 22.5515 12.5205C22.6242 12.2963 22.7443 12.0711 22.912 11.8429C23.0796 11.6157 23.3088 11.4037 23.6006 11.2078C24.2751 10.7544 24.9577 10.6191 25.6483 10.8019C26.339 10.9847 26.9559 11.4794 27.4982 12.2872L29.9488 15.9334L28.6372 16.8149L26.4642 13.5807C26.0502 12.9647 25.6251 12.5881 25.1899 12.4528C24.7547 12.3165 24.2781 12.4225 23.7622 12.7689C23.2209 13.1324 22.9513 13.5766 22.9534 14.1007C22.9554 14.6247 23.1462 15.17 23.5269 15.7365L25.616 18.8464L24.3044 19.7279L20.2432 13.6837H20.2412Z" fill="currentColor"/>
    <path d="M29.4401 12.066C29.2401 11.541 29.1432 11.028 29.1503 10.5262C29.1573 10.0244 29.2603 9.55585 29.4592 9.11964C29.6582 8.68445 29.9439 8.29368 30.3165 7.94734C30.6891 7.601 31.1425 7.32636 31.6766 7.12239C32.2108 6.91842 32.7318 6.82149 33.2407 6.83159C33.7496 6.84168 34.2222 6.94266 34.6604 7.13552C35.0986 7.32838 35.4874 7.60908 35.8276 7.97864C36.1669 8.34821 36.4375 8.79552 36.6374 9.32058C36.8343 9.83656 36.9293 10.3475 36.9242 10.8534C36.9192 11.3602 36.8162 11.8308 36.6183 12.267C36.4193 12.7022 36.1336 13.094 35.761 13.4393C35.3884 13.7856 34.935 14.0603 34.4009 14.2642C33.8667 14.4682 33.3447 14.5651 32.8368 14.555C32.3279 14.5449 31.8553 14.444 31.4171 14.2511C30.9789 14.0593 30.5891 13.7755 30.2478 13.4009C29.9066 13.0263 29.638 12.582 29.4411 12.066H29.4401ZM30.887 11.5137C31.0122 11.8419 31.1818 12.1236 31.3949 12.3589C31.608 12.5941 31.8463 12.7749 32.1088 12.9001C32.3713 13.0253 32.6551 13.094 32.961 13.1061C33.2659 13.1182 33.5779 13.0637 33.897 12.9425C34.2151 12.8213 34.4847 12.6537 34.7038 12.4417C34.9229 12.2296 35.0915 11.9883 35.2087 11.7177C35.3258 11.4481 35.3834 11.1553 35.3803 10.8392C35.3783 10.5232 35.3147 10.2021 35.1895 9.87392C35.0643 9.54575 34.8977 9.26303 34.6887 9.02574C34.4796 8.78845 34.2424 8.60872 33.9748 8.48452C33.7072 8.36133 33.4214 8.29267 33.1165 8.28055C32.8105 8.26844 32.4985 8.32296 32.1805 8.44413C31.8614 8.5653 31.5928 8.73292 31.3737 8.94496C31.1546 9.157 30.988 9.39833 30.8759 9.66591C30.7638 9.9345 30.7063 10.2273 30.7042 10.5444C30.7022 10.8624 30.7638 11.1846 30.888 11.5127L30.887 11.5137Z" fill="currentColor"/>
    <path d="M57.1765 2L58.6891 2.4564L57.7207 5.66836L57.1815 6.93558L57.542 7.04463C57.8075 6.68517 58.1721 6.42264 58.6355 6.25805C59.099 6.09447 59.614 6.0975 60.1804 6.26815C60.6318 6.40446 61.0347 6.61449 61.3881 6.89923C61.7425 7.18398 62.0232 7.5283 62.2322 7.93118C62.4402 8.33406 62.5644 8.79147 62.6048 9.30038C62.6452 9.8103 62.5785 10.3525 62.4049 10.9291C62.2312 11.5056 61.9868 11.9943 61.6718 12.3972C61.3568 12.8001 61.0003 13.1121 60.6045 13.3322C60.2077 13.5534 59.7836 13.6846 59.3312 13.726C58.8789 13.7674 58.4265 13.721 57.9752 13.5847C57.4087 13.414 56.9776 13.1323 56.6817 12.7395C56.3858 12.3467 56.2273 11.9267 56.2051 11.4804L55.8446 11.3724L55.6063 12.683L54.0938 12.2266L57.1765 2ZM56.6423 9.19335C56.5444 9.51949 56.503 9.83756 56.5201 10.1465C56.5373 10.4555 56.609 10.7393 56.7352 10.9967C56.8614 11.2552 57.0402 11.4794 57.2714 11.6692C57.5016 11.859 57.7762 12.0024 58.0923 12.0973C58.4094 12.1933 58.7143 12.2246 59.0061 12.1923C59.2989 12.1599 59.5685 12.0711 59.8169 11.9257C60.0653 11.7803 60.2814 11.5844 60.4662 11.336C60.651 11.0876 60.7923 10.8008 60.8913 10.4737C60.9892 10.1475 61.0306 9.82948 61.0135 9.5205C60.9963 9.21152 60.9246 8.92779 60.7984 8.6703C60.6722 8.41282 60.4955 8.18866 60.2693 7.99984C60.0431 7.81102 59.7715 7.66966 59.4554 7.57373C59.1394 7.47781 58.8314 7.4455 58.5346 7.4768C58.2367 7.5081 57.9641 7.59595 57.7167 7.74135C57.4683 7.88675 57.2522 8.08365 57.0674 8.33103C56.8826 8.57943 56.7413 8.86619 56.6423 9.19335Z" fill="currentColor"/>
    <path d="M63.5618 12.3983L65.7954 8.52797L67.1636 9.31758L65.14 12.8224C64.4787 13.9694 64.6645 14.8408 65.6984 15.4376C66.7667 16.0545 67.6321 15.789 68.2944 14.6429L70.318 11.1381L71.6862 11.9277L68.0461 18.2345L66.6779 17.4449L67.4119 16.3231L67.0868 16.1353C66.9576 16.2575 66.8011 16.3696 66.6153 16.4715C66.4295 16.5725 66.2194 16.6402 65.9862 16.6735C65.753 16.7068 65.4975 16.6977 65.2198 16.6483C64.9421 16.5978 64.6513 16.4847 64.3474 16.31C63.6265 15.894 63.1973 15.3427 63.061 14.656C62.9247 13.9694 63.0923 13.2182 63.5628 12.4013L63.5618 12.3983Z" fill="currentColor"/>
    <path d="M69.1465 19.2392L73.7388 13.5877L74.9555 14.5722L70.3753 20.2328L69.1475 19.2392H69.1465ZM74.4254 12.5952L75.3715 11.4259L76.7286 12.5235L75.7825 13.6928L74.4254 12.5952Z" fill="currentColor"/>
    <path d="M71.6294 21.3445L79.0651 13.6756L80.199 14.7752L72.7623 22.4441L71.6284 21.3445H71.6294Z" fill="currentColor"/>
    <path d="M76.6037 20.9305C77.0873 20.5721 77.575 20.3247 78.0678 20.1894C78.5605 20.0541 79.0321 20.0167 79.4824 20.0753C79.9327 20.1349 80.3518 20.2823 80.7395 20.5196C81.1273 20.7558 81.4625 21.0638 81.7432 21.4425C82.0956 21.917 82.2733 22.4007 82.2763 22.8924C82.2794 23.3842 82.1562 23.8153 81.9078 24.1879L82.1319 24.4898L83.1417 23.5528L85.8357 21.5525L86.7777 22.8207L78.2021 29.1891L77.26 27.9209L78.4131 27.2525L78.1889 26.9506C77.7608 27.0808 77.3125 27.0738 76.8419 26.9294C76.3724 26.785 75.9615 26.475 75.6081 25.9994C75.3273 25.6207 75.1294 25.2118 75.0153 24.7716C74.9012 24.3313 74.881 23.888 74.9537 23.4397C75.0264 22.9914 75.2001 22.5512 75.4717 22.118C75.7434 21.6848 76.121 21.289 76.6037 20.9305ZM77.5457 22.1988C77.2721 22.4017 77.05 22.6329 76.8793 22.8904C76.7087 23.1489 76.5966 23.4185 76.5441 23.7012C76.4916 23.984 76.4996 24.2687 76.5683 24.5545C76.637 24.8402 76.7703 25.1169 76.9672 25.3824C77.1651 25.648 77.3912 25.857 77.6487 26.0105C77.9052 26.163 78.1768 26.2549 78.4626 26.2872C78.7483 26.3185 79.0391 26.2902 79.335 26.2013C79.6318 26.1125 79.9166 25.9661 80.1902 25.7631C80.4639 25.5602 80.686 25.3289 80.8567 25.0714C81.0273 24.814 81.1394 24.5434 81.1919 24.2606C81.2444 23.9779 81.2343 23.6911 81.1626 23.4013C81.0909 23.1116 80.9566 22.8329 80.7587 22.5673C80.5608 22.3017 80.3356 22.0948 80.0812 21.9453C79.8267 21.7969 79.5571 21.707 79.2714 21.6747C78.9856 21.6424 78.6948 21.6717 78.398 21.7605C78.1011 21.8494 77.8163 21.9958 77.5427 22.1988H77.5457Z" fill="currentColor"/>
    <path d="M78.7793 30.5482L85.2578 27.2242L85.9747 28.6146L79.5023 31.9518L78.7783 30.5482H78.7793ZM86.2867 26.5921L87.6236 25.9024L88.4233 27.4534L87.0864 28.143L86.2867 26.5921Z" fill="currentColor"/>
    <path d="M87.1784 30.9511L87.6722 32.4516L86.3767 32.7989L86.4948 33.1564C86.6726 33.1503 86.8644 33.1715 87.0704 33.22C87.2764 33.2684 87.4773 33.3573 87.6732 33.4886C87.8691 33.6188 88.0539 33.7955 88.2275 34.0187C88.4012 34.2408 88.5426 34.5195 88.6526 34.8527C88.9071 35.6241 88.8526 36.3178 88.4901 36.9338C88.1276 37.5497 87.4844 38.0091 86.5605 38.3141L82.3883 39.6883L81.8945 38.1879L85.5952 36.9691C86.3 36.7369 86.7766 36.4289 87.026 36.0462C87.2744 35.6635 87.3016 35.1768 87.1067 34.5861C86.9028 33.9672 86.5484 33.5875 86.0425 33.4472C85.5366 33.3068 84.96 33.3442 84.3128 33.5572L80.7545 34.7295L80.2607 33.2291L87.1774 30.9511H87.1784Z" fill="currentColor"/>
    <path d="M90.3755 43.4001C90.427 43.9898 90.325 44.4916 90.0695 44.9066C89.8141 45.3216 89.4829 45.6225 89.077 45.8093L89.1103 46.1839L90.4159 45.9184L90.5542 47.4916L84.0798 48.06C83.5497 48.1065 83.0478 48.06 82.5722 47.9207C82.0967 47.7813 81.6746 47.5562 81.305 47.2462C80.9355 46.9362 80.6315 46.5454 80.3942 46.0729C80.156 45.6003 80.0095 45.049 79.955 44.4199C79.8934 43.7202 79.951 43.0881 80.1287 42.5247C80.3054 41.9602 80.5508 41.5079 80.8628 41.1686L82.1734 41.9895C81.8654 42.2682 81.6281 42.6236 81.4595 43.0568C81.2909 43.489 81.2263 43.9201 81.2636 44.3503C81.2929 44.6805 81.3828 44.9894 81.5342 45.2782C81.6857 45.567 81.8836 45.8184 82.129 46.0345C82.3743 46.2496 82.6581 46.4111 82.9792 46.5182C83.3003 46.6262 83.6416 46.6636 84.001 46.6323L84.4958 46.5889L84.4625 46.2142C84.0293 46.1011 83.6506 45.8629 83.3275 45.4983C83.0034 45.1338 82.8156 44.6572 82.7641 44.0675C82.7227 43.598 82.7712 43.1426 82.9085 42.7034C83.0458 42.2631 83.2629 41.8694 83.5598 41.521C83.8566 41.1726 84.2312 40.8859 84.6846 40.6597C85.138 40.4335 85.6641 40.2942 86.2638 40.2417C86.8636 40.1892 87.4058 40.2346 87.8915 40.378C88.3772 40.5214 88.7962 40.7385 89.1497 41.0303C89.5021 41.3211 89.7848 41.6714 89.9968 42.0814C90.2089 42.4903 90.3361 42.9296 90.3765 43.4001H90.3755ZM86.4002 41.8158C86.0599 41.8461 85.7499 41.9279 85.4702 42.0632C85.1895 42.1985 84.9532 42.3732 84.7613 42.5863C84.5695 42.7993 84.4261 43.0457 84.3352 43.3264C84.2444 43.6061 84.2131 43.911 84.2413 44.2412C84.2706 44.5704 84.3544 44.8683 84.4938 45.1328C84.6331 45.3974 84.8159 45.6155 85.0421 45.7871C85.2682 45.9588 85.5308 46.084 85.8307 46.1638C86.1295 46.2435 86.4486 46.2678 86.7889 46.2385C87.1282 46.2092 87.4392 46.1284 87.7189 45.9982C87.9996 45.8679 88.2358 45.6983 88.4297 45.4903C88.6226 45.2823 88.7649 45.0359 88.8558 44.7501C88.9467 44.4654 88.978 44.1584 88.9487 43.8282C88.9194 43.4981 88.8356 43.2042 88.6973 42.9437C88.559 42.6842 88.3762 42.4661 88.149 42.2894C87.9218 42.1127 87.6593 41.9824 87.3594 41.8976C87.0595 41.8128 86.7404 41.7855 86.4012 41.8158H86.4002Z" fill="currentColor"/>
    <path d="M90.0766 66.3625L89.3365 67.7579L86.3729 66.1858L85.234 65.4113L85.0572 65.7435C85.3592 66.0737 85.545 66.4816 85.6166 66.9683C85.6883 67.455 85.5853 67.9589 85.3077 68.4819C85.0865 68.8979 84.8018 69.2524 84.4544 69.5452C84.1061 69.837 83.7143 70.047 83.2781 70.1732C82.8419 70.2994 82.3704 70.3328 81.8625 70.2732C81.3546 70.2136 80.8345 70.043 80.3034 69.7613C79.7723 69.4795 79.3391 69.1443 79.0049 68.7576C78.6707 68.3698 78.4344 67.9609 78.2941 67.5287C78.1537 67.0966 78.1072 66.6553 78.1547 66.203C78.2012 65.7506 78.3354 65.3164 78.5566 64.9004C78.8343 64.3774 79.1937 64.0098 79.637 63.7957C80.0793 63.5817 80.5225 63.508 80.9648 63.5716L81.1415 63.2394L79.9015 62.7517L80.6417 61.3562L90.0777 66.3625H90.0766ZM83.1236 64.445C82.8227 64.2855 82.5188 64.1835 82.2118 64.1401C81.9049 64.0966 81.613 64.1118 81.3354 64.1865C81.0577 64.2602 80.8032 64.3925 80.572 64.5823C80.3408 64.7722 80.1479 65.0125 79.9924 65.3053C79.8369 65.5981 79.7471 65.8909 79.7218 66.1838C79.6966 66.4766 79.7319 66.7593 79.8258 67.0309C79.9207 67.3026 80.0712 67.553 80.2792 67.7822C80.4862 68.0114 80.7416 68.2063 81.0425 68.3658C81.3434 68.5253 81.6474 68.6273 81.9543 68.6707C82.2613 68.7142 82.5531 68.699 82.8308 68.6243C83.1085 68.5506 83.3619 68.4203 83.5901 68.2355C83.8193 68.0508 84.0112 67.8115 84.1667 67.5196C84.3222 67.2268 84.413 66.932 84.4403 66.6341C84.4676 66.3362 84.4342 66.0515 84.3393 65.7799C84.2444 65.5083 84.094 65.2578 83.886 65.0286C83.678 64.7994 83.4235 64.6045 83.1226 64.445H83.1236Z" fill="currentColor"/>
    <path d="M79.444 70.8528C79.8317 71.187 80.1478 71.5687 80.3921 71.9988C80.6365 72.429 80.791 72.8793 80.8546 73.3519C80.9172 73.8234 80.8788 74.303 80.7364 74.7897C80.5951 75.2764 80.3305 75.7439 79.9438 76.1923C79.5379 76.6628 79.1017 76.999 78.6372 77.201C78.1717 77.4019 77.6992 77.4857 77.2205 77.4494C76.7419 77.414 76.2744 77.2717 75.819 77.0253C75.3636 76.7779 74.9456 76.4376 74.5649 76.0034L78.1616 71.8332C77.6396 71.502 77.0984 71.3768 76.539 71.4566C75.9796 71.5364 75.4808 71.8312 75.0415 72.3401C74.8588 72.5532 74.7124 72.7753 74.6053 73.0076C74.4983 73.2388 74.4165 73.464 74.362 73.6811C74.3064 73.8981 74.2772 74.1051 74.2741 74.301C74.2711 74.4969 74.2772 74.6615 74.2943 74.7958L72.8928 74.6009C72.8898 74.4656 72.8908 74.2849 72.8958 74.0567C72.8999 73.8285 72.9342 73.574 72.9988 73.2913C73.0635 73.0096 73.1745 72.7036 73.331 72.3765C73.4886 72.0483 73.7208 71.706 74.0288 71.3486C74.4286 70.8851 74.8557 70.5317 75.3111 70.2883C75.7655 70.045 76.229 69.9036 76.6985 69.8663C77.169 69.8279 77.6386 69.8925 78.1101 70.0612C78.5817 70.2298 79.0259 70.4933 79.444 70.8538V70.8528ZM78.8482 72.4643L78.6422 72.5653C78.6342 72.6511 78.5493 72.846 78.3868 73.1499C78.2242 73.4539 77.9889 73.784 77.681 74.1405C77.4911 74.3606 77.3215 74.5424 77.1721 74.6847C77.0226 74.8271 76.8934 74.9382 76.7864 75.0169C76.6783 75.0957 76.5884 75.1543 76.5168 75.1916C76.4451 75.229 76.3875 75.2492 76.3451 75.2522L76.2643 75.4612C76.5077 75.6712 76.7551 75.8177 77.0065 75.9025C77.2579 75.9873 77.5023 76.0186 77.7385 75.9974C77.9758 75.9762 78.201 75.9065 78.4161 75.7874C78.6311 75.6682 78.824 75.5097 78.9946 75.3128C79.132 75.1532 79.2481 74.9584 79.341 74.7271C79.4339 74.4959 79.4834 74.2546 79.4904 74.0011C79.4965 73.7487 79.451 73.4902 79.3531 73.2277C79.2552 72.9641 79.0875 72.7107 78.8482 72.4653V72.4643Z" fill="currentColor"/>
    <path d="M75.2735 80.6281L77.091 82.9495L75.847 83.9228L74.6787 82.4304C74.5677 82.2881 74.4818 82.1063 74.4233 81.8852C74.3647 81.6641 74.3687 81.4571 74.4344 81.2652L74.0567 81.1976C74.0113 81.3349 73.9537 81.4692 73.8841 81.5994C73.8144 81.7307 73.7013 81.8579 73.5428 81.9811L71.6233 83.4836L70.7882 82.4173L73.1934 80.5342L71.2456 78.0462C70.9054 77.612 70.5792 77.3616 70.2652 77.2949C69.9522 77.2283 69.6492 77.3091 69.3564 77.5383C69.1121 77.7301 68.901 78.0098 68.7233 78.3774C68.5466 78.7449 68.4376 79.1236 68.3982 79.5113L67.1572 78.8782C67.2562 78.3541 67.4369 77.8725 67.6974 77.4333C67.9579 76.993 68.2861 76.6184 68.6809 76.3094C69.2888 75.8328 69.9067 75.6259 70.5358 75.6885C71.1638 75.7511 71.7596 76.1408 72.322 76.8597L74.4364 79.5608L75.7036 78.5682L76.5387 79.6345L75.2715 80.6271L75.2735 80.6281Z" fill="currentColor"/>
    <path d="M68.7035 85.2658L70.0606 87.884L68.6581 88.611L67.7856 86.9278C67.7028 86.7673 67.6524 86.5734 67.6362 86.3442C67.619 86.116 67.6614 85.913 67.7614 85.7363L67.403 85.6C67.3333 85.7262 67.2515 85.8474 67.1596 85.9635C67.0677 86.0796 66.9324 86.1836 66.7537 86.2755L64.5898 87.3973L63.9668 86.1947L66.678 84.7892L65.2239 81.9841C64.9695 81.4944 64.6948 81.1875 64.399 81.0643C64.1031 80.9401 63.7911 80.9643 63.4609 81.135C63.1853 81.2783 62.9258 81.5136 62.6845 81.8428C62.4431 82.172 62.2664 82.5233 62.1554 82.8969L61.0527 82.0447C61.2476 81.5479 61.5132 81.1077 61.8504 80.724C62.1877 80.3403 62.5795 80.0323 63.0247 79.8021C63.7104 79.4467 64.3566 79.3578 64.9624 79.5345C65.5683 79.7112 66.0812 80.205 66.5013 81.0158L68.0805 84.0612L69.5093 83.32L70.1323 84.5226L68.7035 85.2638V85.2658Z" fill="currentColor"/>
    <path d="M61.6655 84.7023C61.8089 85.193 61.8665 85.6858 61.8382 86.1795C61.8099 86.6733 61.6938 87.1358 61.4908 87.5659C61.2869 87.996 60.9941 88.3767 60.6093 88.7089C60.2256 89.0401 59.7501 89.2895 59.1816 89.4551C58.5848 89.6298 58.0365 89.6742 57.5367 89.5904C57.0369 89.5066 56.5957 89.3188 56.213 89.029C55.8303 88.7382 55.5152 88.3656 55.2668 87.9102C55.0184 87.4548 54.8539 86.9419 54.7701 86.3704L60.056 84.8275C59.7975 84.2651 59.4128 83.8662 58.8989 83.6289C58.3859 83.3917 57.8063 83.3674 57.1611 83.5562C56.8915 83.635 56.6492 83.742 56.4321 83.8784C56.216 84.0147 56.0252 84.1591 55.8616 84.3115C55.697 84.464 55.5597 84.6215 55.4506 84.7841C55.3416 84.9466 55.2578 85.088 55.1992 85.2102L54.1299 84.2843C54.2016 84.1692 54.3005 84.0177 54.4278 83.8289C54.556 83.6401 54.7236 83.4452 54.9306 83.2432C55.1386 83.0413 55.3971 82.8454 55.7071 82.6556C56.0171 82.4657 56.3988 82.3052 56.8511 82.1729C57.4388 82.0013 57.9891 81.9376 58.503 81.9801C59.017 82.0235 59.4825 82.1568 59.8975 82.3799C60.3135 82.6031 60.673 82.9141 60.9769 83.3109C61.2808 83.7077 61.51 84.1712 61.6645 84.7013L61.6655 84.7023ZM60.2893 85.7302L60.0621 85.7029C60.0086 85.7706 59.8319 85.8877 59.5299 86.0543C59.228 86.2209 58.8514 86.3694 58.399 86.5016C58.1193 86.5834 57.879 86.643 57.6761 86.6814C57.4731 86.7197 57.3045 86.743 57.1712 86.75C57.0379 86.7581 56.9309 86.7581 56.8501 86.75C56.7693 86.742 56.7108 86.7278 56.6734 86.7076L56.4927 86.8389C56.5825 87.1469 56.7098 87.4043 56.8754 87.6123C57.0409 87.8204 57.2277 87.9799 57.4378 88.091C57.6478 88.202 57.876 88.2656 58.1204 88.2838C58.3657 88.301 58.6131 88.2727 58.8635 88.2C59.0655 88.1414 59.2684 88.0395 59.4724 87.8971C59.6764 87.7537 59.849 87.578 59.9924 87.369C60.1348 87.16 60.2368 86.9187 60.2984 86.645C60.3599 86.3714 60.3569 86.0664 60.2903 85.7302H60.2893Z" fill="currentColor"/>
    <path d="M53.5299 90.5386L51.9588 90.7002L51.8386 89.5329L51.4792 89.5703C51.3984 89.962 51.2126 90.2862 50.9208 90.5426C50.63 90.7991 50.2847 90.9486 49.8858 90.9889C49.5465 91.0243 49.2093 90.9778 48.873 90.8506L49.1548 89.1734C49.5869 89.3512 49.9817 89.4208 50.3412 89.3845C50.5704 89.3612 50.7653 89.2956 50.9258 89.1886C51.0864 89.0816 51.2197 88.9594 51.3267 88.8221C51.4337 88.6847 51.5145 88.5383 51.569 88.3808C51.6236 88.2243 51.6599 88.0839 51.6771 87.9618L51.2136 83.4573L52.7848 83.2958L53.5299 90.5396V90.5386Z" fill="currentColor"/>
    <path d="M31.0333 87.9092L31.7209 86.7682L31.3786 86.6117C31.0666 86.9318 30.6698 87.1418 30.1881 87.2418C29.7065 87.3417 29.1976 87.269 28.6594 87.0227C28.2313 86.8268 27.8607 86.5632 27.5477 86.233C27.2357 85.9029 27.0034 85.5232 26.852 85.0961C26.7005 84.668 26.6389 84.1994 26.6682 83.6885C26.6975 83.1776 26.8368 82.6495 27.0873 82.1022C27.3377 81.5549 27.6466 81.1036 28.0132 80.7472C28.3797 80.3907 28.7745 80.1302 29.1976 79.9656C29.6207 79.8 30.0589 79.7283 30.5133 79.7485C30.9677 79.7687 31.4089 79.8768 31.837 80.0727C32.3752 80.319 32.764 80.6563 33.0033 81.0854C33.2426 81.5146 33.3436 81.9518 33.3052 82.3981L33.6475 82.5546L34.0797 81.247L35.2681 78.6469L36.705 79.3032L32.4701 88.5665L31.0333 87.9092ZM32.561 84.6033C32.7024 84.2933 32.7862 83.9844 32.8114 83.6754C32.8367 83.3674 32.8044 83.0766 32.7135 82.804C32.6226 82.5314 32.4772 82.285 32.2732 82.0649C32.0703 81.8447 31.8189 81.667 31.517 81.5287C31.2161 81.3914 30.9182 81.3187 30.6244 81.3106C30.3305 81.3025 30.0498 81.354 29.7843 81.4641C29.5187 81.5741 29.2774 81.7397 29.0613 81.9609C28.8442 82.182 28.6655 82.4465 28.5231 82.7575C28.3817 83.0675 28.2979 83.3765 28.2727 83.6855C28.2474 83.9935 28.2797 84.2843 28.3706 84.5569C28.4615 84.8295 28.6049 85.0749 28.8038 85.293C29.0017 85.5101 29.2521 85.6878 29.553 85.8261C29.8539 85.9634 30.1538 86.0372 30.4527 86.0473C30.7516 86.0573 31.0333 86.0069 31.2989 85.8968C31.5644 85.7867 31.8057 85.6211 32.0218 85.4C32.2389 85.1789 32.4176 84.9133 32.56 84.6033H32.561Z" fill="currentColor"/>
    <path d="M26.8597 80.0565C26.6477 80.3362 26.4084 80.5482 26.1408 80.6916C25.8742 80.835 25.5895 80.9158 25.2876 80.9319C24.9857 80.9481 24.6767 80.8996 24.3596 80.7845C24.0436 80.6704 23.7336 80.4977 23.4297 80.2675C23.0298 79.9646 22.7622 79.6506 22.6239 79.3254C22.4866 79.0003 22.4381 78.6206 22.4785 78.1855L22.2897 78.0613L21.7889 78.7206C21.5405 79.0478 21.3749 79.3446 21.2931 79.6102C21.2113 79.8757 21.1941 80.114 21.2406 80.3261C21.287 80.5381 21.388 80.734 21.5405 80.9127C21.6939 81.0925 21.8787 81.2641 22.0938 81.4277C22.318 81.5973 22.531 81.7155 22.733 81.7801C22.9349 81.8457 23.1217 81.877 23.2934 81.875C23.465 81.873 23.6145 81.8548 23.7417 81.8195C23.8689 81.7841 23.9689 81.7438 24.0416 81.6983L24.4455 83.1574C24.2122 83.2826 23.9557 83.3553 23.675 83.3755C23.3953 83.3957 23.1096 83.3745 22.8178 83.3099C22.526 83.2462 22.2362 83.1422 21.9484 82.9989C21.6606 82.8555 21.389 82.6868 21.1325 82.493C20.3177 81.874 19.836 81.1652 19.6876 80.3665C19.5392 79.5668 19.7744 78.76 20.3924 77.9451L22.9854 74.5302L24.1476 75.4127L23.5377 76.2155L23.7831 76.4396C23.9063 76.3437 24.0557 76.272 24.2314 76.2225C24.4071 76.1731 24.602 76.1579 24.815 76.1751C25.0291 76.1922 25.2543 76.2478 25.4926 76.3397C25.7309 76.4326 25.9742 76.5729 26.2216 76.7607C26.5013 76.9728 26.7325 77.2121 26.9153 77.4766C27.098 77.7412 27.2202 78.0199 27.2818 78.3127C27.3434 78.6045 27.3404 78.8983 27.2737 79.1942C27.2071 79.49 27.0678 79.7768 26.8547 80.0565H26.8597ZM25.6137 79.1104C25.7894 78.8781 25.8409 78.6247 25.7672 78.348C25.6935 78.0714 25.4895 77.8058 25.1533 77.5513C24.9938 77.4302 24.8171 77.3272 24.6222 77.2424C24.4283 77.1585 24.2334 77.0949 24.0375 77.0535C23.8427 77.0121 23.6528 76.997 23.468 77.0081C23.2833 77.0192 23.1237 77.0556 22.9894 77.1161C22.9602 77.2706 22.9672 77.4362 23.0096 77.6129C23.052 77.7896 23.1187 77.9663 23.2106 78.144C23.3025 78.3208 23.4155 78.4914 23.5488 78.656C23.6821 78.8206 23.8285 78.9629 23.9891 79.0841C24.3243 79.3386 24.6353 79.4648 24.9211 79.4607C25.2068 79.4577 25.438 79.3396 25.6137 79.1084V79.1104Z" fill="currentColor"/>
    <path d="M16.2688 78.0482L14.0777 80.0222L13.0205 78.8489L14.4291 77.5796C14.5634 77.4585 14.7391 77.3615 14.9552 77.2878C15.1723 77.2141 15.3792 77.203 15.5751 77.2565L15.6165 76.8748C15.4762 76.8395 15.3389 76.791 15.2036 76.7304C15.0682 76.6699 14.9329 76.5659 14.7986 76.4164L13.1669 74.606L14.1726 73.6992L16.2173 75.9681L18.565 73.8527C18.9749 73.4831 19.2021 73.1398 19.2465 72.8228C19.292 72.5057 19.19 72.2089 18.9416 71.9332C18.7336 71.702 18.4398 71.5111 18.0601 71.3597C17.6814 71.2082 17.2967 71.1264 16.906 71.1133L17.4522 69.8309C17.9813 69.8935 18.4751 70.041 18.9315 70.2702C19.3879 70.5004 19.7847 70.8013 20.1199 71.1739C20.6369 71.7474 20.8863 72.3502 20.8672 72.9813C20.849 73.6124 20.5006 74.2334 19.8221 74.8443L17.2735 77.1404L18.3509 78.3359L17.3452 79.2427L16.2678 78.0471L16.2688 78.0482Z" fill="currentColor"/>
    <path d="M8.56966 74.1597L7.77197 72.7956L10.5518 71.1709C10.8719 70.9831 11.1394 70.8447 11.3535 70.7539C11.5676 70.663 11.7594 70.5923 11.926 70.5408L11.721 70.1904C11.5484 70.2328 11.3575 70.249 11.1475 70.2379C10.9385 70.2268 10.7224 70.1763 10.5003 70.0844C10.2791 69.9935 10.058 69.8552 9.8389 69.6694C9.61979 69.4836 9.42188 69.2393 9.24517 68.9363C8.83522 68.2346 8.74334 67.5459 8.96851 66.8674C9.19368 66.1899 9.72682 65.6052 10.5669 65.1145L14.3595 62.8971L15.1572 64.2613L11.923 66.1515C11.3081 66.511 10.889 66.9159 10.6639 67.3672C10.4397 67.8176 10.4892 68.3204 10.8133 68.8748C11.1425 69.4382 11.5686 69.734 12.0916 69.7653C12.6147 69.7966 13.171 69.6391 13.7597 69.2958L16.9939 67.4056L17.7916 68.7697L8.56966 74.1607V74.1597Z" fill="currentColor"/>
    <path d="M13.0752 62.6164L11.6071 62.1781C11.913 61.7985 12.0917 61.3835 12.1442 60.9311C12.1967 60.4787 12.1634 60.0769 12.0443 59.7255C12.0221 59.6588 11.9766 59.5498 11.909 59.3983C11.8413 59.2469 11.7545 59.0984 11.6464 58.9551C11.5394 58.8117 11.4152 58.6945 11.2728 58.6057C11.1315 58.5158 10.9699 58.5017 10.7892 58.5633C10.5711 58.638 10.4398 58.7884 10.3944 59.0156C10.3499 59.2428 10.3388 59.5134 10.361 59.8295C10.3833 60.1455 10.4146 60.4838 10.4529 60.8473C10.4913 61.2098 10.4873 61.5612 10.4378 61.9015C10.3893 62.2417 10.2661 62.5507 10.0702 62.8294C9.87334 63.1081 9.55729 63.3222 9.12008 63.4706C8.43649 63.7028 7.81247 63.6503 7.24702 63.3131C6.68157 62.9758 6.26051 62.3983 5.98283 61.5814C5.8243 61.1159 5.74655 60.6292 5.74857 60.1203C5.75059 59.6114 5.87984 59.1277 6.13732 58.6693L7.56811 59.2792C7.10263 59.8406 6.99862 60.501 7.25611 61.2603C7.39141 61.6591 7.56206 61.9328 7.76501 62.0802C7.96898 62.2276 8.19011 62.2619 8.4274 62.1812C8.67478 62.0974 8.82725 61.9398 8.88582 61.7076C8.94438 61.4754 8.96256 61.2017 8.94034 60.8867C8.91813 60.5716 8.88481 60.2334 8.84139 59.8719C8.79797 59.5104 8.79797 59.161 8.84139 58.8228C8.88582 58.4845 9.00093 58.1786 9.18773 57.9029C9.37453 57.6273 9.68654 57.4152 10.1238 57.2668C10.8174 57.0315 11.4435 57.0961 12.0019 57.4627C12.5613 57.8282 12.9924 58.4583 13.2953 59.3509C13.5054 59.9678 13.5962 60.5626 13.568 61.1331C13.5397 61.7046 13.3741 62.2003 13.0722 62.6204L13.0752 62.6164Z" fill="currentColor"/>
    <path d="M45.5474 0.110002C47.311 2.93239 50.1094 7.28745 50.8048 7.62976C50.8286 7.85708 50.8388 8.21295 50.839 8.21808C48.6236 8.87914 46.905 10.1074 45.6831 11.9029C45.6618 11.9328 45.6418 11.9638 45.621 11.9939C45.5997 11.964 45.5793 11.9333 45.5577 11.9036C44.3136 10.1235 42.5799 8.91656 40.3566 8.28298C40.3566 8.27786 40.3624 7.92189 40.3835 7.69429C41.0745 7.34339 43.8188 2.95401 45.5474 0.110002Z" fill="currentColor"/>
    <path d="M0.0921388 46.2702C3.15838 44.9762 7.90194 42.9034 8.35014 42.2711C8.57836 42.2836 8.93135 42.3299 8.93644 42.3306C9.23801 44.6227 10.1784 46.5143 11.7574 48.0054C11.7836 48.0311 11.811 48.0557 11.8375 48.0811C11.8046 48.0974 11.7711 48.1126 11.7383 48.1293C9.7835 49.0755 8.31704 50.596 7.33907 52.6908C7.33403 52.6899 6.98347 52.6278 6.76209 52.5709C6.52516 51.833 2.62622 48.4277 0.0921388 46.2702Z" fill="currentColor"/>
</svg>
