<svg width="38" height="36" viewBox="0 0 38 36" fill="none" xmlns="http://www.w3.org/2000/svg">
<path fill-rule="evenodd" clip-rule="evenodd" d="M19.1248 0.528621C13.2694 0.0718445 6.49271 -1.20318 2.58936 3.18146C-1.43346 7.70031 0.0954285 14.4928 1.44508 20.3883C2.79364 26.279 4.37006 33.0634 9.95897 35.3729C15.3752 37.6111 20.8228 33.354 25.9487 30.5142C30.529 27.9766 35.5802 25.4722 36.9474 20.4209C38.3659 15.1805 36.3351 9.57601 32.7111 5.53124C29.3242 1.75106 24.1873 0.923547 19.1248 0.528621Z" fill="url(#paint0_linear_3116_739)"/>
<path d="M18.8216 11.2465C18.496 10.2473 18.1659 9.23429 17.8404 8.23503C17.8312 8.20753 17.8266 8.19378 17.8175 8.16627C17.6524 7.69415 17.4782 7.21744 17.3131 6.74532C16.9464 5.7369 16.3825 5.30606 15.3053 5.23738C15.2915 5.24196 15.2732 5.23279 15.2595 5.23738C14.6361 5.33827 14.1089 5.63626 13.6598 6.07634C13.1831 6.54851 12.6697 7.00235 12.1839 7.46994C10.7996 8.79478 9.42916 10.1609 8.01284 11.4582C7.29323 12.1183 6.99991 12.8197 7.43086 13.7456C7.47671 13.8143 7.52713 13.8739 7.57297 13.9198C8.04057 14.4515 8.63648 14.5889 9.36072 14.4468C10.0345 14.3138 10.6625 14.0662 11.3042 13.837C13.8161 12.9842 16.3142 12.1131 18.8216 11.2465Z" fill="#DFDBDF"/>
<path fill-rule="evenodd" clip-rule="evenodd" d="M7.30942 13.4589L10.5737 23.3425C10.9862 24.5915 12.3346 25.2682 13.5826 24.8525L21.4899 22.2185C23.6191 21.5093 25.9634 21.9452 27.6953 23.3725C28.1019 23.7075 28.6934 23.3015 28.5269 22.8017L24.9086 11.9393C24.4174 10.4647 22.819 9.67254 21.3481 10.1747L9.71599 14.1463C8.56517 14.4252 8.05265 14.2773 7.30942 13.4589ZM15.411 19.5107C15.5237 19.3093 15.5517 19.0715 15.489 18.8494C15.4263 18.6274 15.278 18.4394 15.0767 18.3267C14.8753 18.214 14.6375 18.186 14.4154 18.2487C14.1934 18.3114 14.0054 18.4597 13.8927 18.661C13.78 18.8624 13.752 19.1002 13.8147 19.3223C13.8774 19.5443 14.0257 19.7323 14.227 19.845C14.4284 19.9577 14.6662 19.9857 14.8883 19.923C15.1103 19.8603 15.2983 19.712 15.411 19.5107ZM18.7598 18.565C18.8725 18.3637 18.9005 18.1259 18.8378 17.9038C18.7751 17.6818 18.6268 17.4937 18.4255 17.3811C18.2241 17.2684 17.9863 17.2403 17.7642 17.303C17.5422 17.3657 17.3542 17.5141 17.2415 17.7154C17.1288 17.9167 17.1007 18.1546 17.1634 18.3766C17.2261 18.5987 17.3745 18.7867 17.5758 18.8994C17.7772 19.012 18.015 19.0401 18.237 18.9774C18.4591 18.9147 18.6471 18.7664 18.7598 18.565ZM22.1086 17.6194C22.2212 17.4181 22.2493 17.1802 22.1866 16.9582C22.1239 16.7361 21.9756 16.5481 21.7742 16.4354C21.5729 16.3228 21.3351 16.2947 21.113 16.3574C20.891 16.4201 20.7029 16.5684 20.5903 16.7698C20.4776 16.9711 20.4495 17.209 20.5122 17.431C20.5749 17.653 20.7233 17.8411 20.9246 17.9537C21.1259 18.0664 21.3638 18.0945 21.5858 18.0318C21.8079 17.9691 21.9959 17.8208 22.1086 17.6194Z" fill="white"/>
<defs>
<linearGradient id="paint0_linear_3116_739" x1="3.94041" y1="14.0789" x2="52.1315" y2="22.1492" gradientUnits="userSpaceOnUse">
<stop stop-color="#5F8AFA"/>
<stop offset="1" stop-color="#69F7F7"/>
</linearGradient>
</defs>
</svg>
