<svg width="37" height="37" viewBox="0 0 37 37" fill="none" xmlns="http://www.w3.org/2000/svg">
    <rect width="37" height="37" rx="18.5" fill="white"/>
    <path fill-rule="evenodd" clip-rule="evenodd" d="M28.387 27.2908C27.6853 27.8971 26.8928 28.4509 26.0191 28.9378C26.1815 28.8089 25.6706 28.2743 25.8282 28.1358C29.6856 24.7797 30.5688 20.464 29.0077 16.6638C28.7976 16.153 29.2416 15.9477 29.2416 15.4751C32.7935 18.8312 32.4116 23.7914 28.387 27.2908Z" fill="#1F5EFF"/>
    <path fill-rule="evenodd" clip-rule="evenodd" d="M29.2368 15.4753C27.9335 14.2436 26.1051 13.2267 23.7324 12.5774C23.7228 12.5774 23.7133 12.5774 23.7037 12.5679C23.7133 12.5679 23.7276 12.5726 23.7372 12.5774C24.5153 12.7827 24.5774 13.685 25.1121 14.1385C26.2626 15.1124 26.5729 16.3632 26.6923 18.0103C26.8689 20.4641 26.8546 22.8893 25.0643 25.0519C24.1239 26.1882 22.9351 27.2193 21.5316 27.8256C21.4265 27.8734 21.3263 27.9164 21.2165 27.9641C21.2022 27.9641 21.1878 27.9784 21.1687 27.9784C20.4956 28.2505 19.7461 28.4701 18.9154 28.6229C16.008 29.1719 12.1649 28.9428 7.51025 27.4628C9.36735 28.895 11.3581 29.8498 13.368 30.3988C15.5688 31.0051 17.7887 31.1293 19.8845 30.8762H19.8988C20.2092 30.8428 20.5195 30.7951 20.825 30.7426C22.0472 30.5325 23.2168 30.1888 24.3005 29.7448C24.8925 29.5013 25.4606 29.234 26.0048 28.9332C26.1671 28.8043 26.3295 28.6707 26.4822 28.5322C30.86 24.7273 31.853 19.5618 29.2273 15.4705L29.2368 15.4753Z" fill="#1F5EFF"/>
    <path fill-rule="evenodd" clip-rule="evenodd" d="M21.2164 27.9592C26.654 25.7441 26.9453 20.1298 20.6292 16.9647C16.0366 14.6684 18.0656 11.021 23.7371 12.5726C30.0722 14.2339 28.196 25.2667 21.2212 27.9545L21.2164 27.9592Z" fill="#1F5EFF"/>
    <path fill-rule="evenodd" clip-rule="evenodd" d="M29.6569 9.54129C23.6798 7.64123 19.0443 7.80355 16.0032 9.03047C15.9889 9.03524 15.9746 9.04002 15.9602 9.04957C11.4392 10.8923 10.4749 15.0887 13.9122 18.2634C13.0051 17.5139 11.9739 16.7119 11.5252 15.695C10.9523 14.3965 10.7804 12.7924 11.0096 11.4414C11.3199 9.61768 12.4752 7.97064 14.3705 6.96332C15.1248 6.5623 16.2658 6.27586 17.2874 6.12309C21.3072 5.64092 25.7709 6.53366 29.6569 9.54129Z" fill="#1F5EFF"/>
    <path fill-rule="evenodd" clip-rule="evenodd" d="M14.9195 24.7371C14.528 24.6082 14.084 24.5509 13.7212 24.4029C9.10474 22.5458 6.64134 19.0942 6.72727 15.6855C6.78933 13.2651 8.21199 10.8112 10.5322 8.79183C11.191 8.21895 12.0551 7.73678 12.8571 7.26415C12.8571 7.26415 12.8571 7.26415 12.8619 7.26415C13.9504 6.82016 15.12 6.48121 16.3374 6.26638C16.6477 6.21386 16.9628 6.16612 17.2779 6.12793C16.9007 6.18522 16.5474 6.25683 16.2085 6.35231C10.2362 7.97548 9.87813 14.9265 13.9026 18.2635C14.5996 18.908 15.4733 19.5095 16.5331 20.0394C20.6961 22.1257 19.4166 25.3195 14.9099 24.7323L14.9195 24.7371Z" fill="#1F5EFF"/>
    <path fill-rule="evenodd" clip-rule="evenodd" d="M14.9195 24.7371C14.4612 24.6798 13.9647 24.5795 13.4395 24.4363C4.58848 22.0159 3.28995 14.4968 8.78485 9.71801C9.92107 8.72979 11.3055 7.89433 12.8571 7.26416C12.0598 7.73679 11.3199 8.2667 10.6658 8.83481C4.81286 13.9239 5.97772 21.8393 14.9195 24.7371Z" fill="#1F5EFF"/>
</svg>
