<svg width="100%" height="200" viewBox="0 0 1440 200" fill="none" xmlns="http://www.w3.org/2000/svg">
<path d="M1312.84 0.602539C1311.63 0.499997 1310.4 0.5 1307.95 0.5H1048.26H1048.25C1045.91 0.5 1044.74 0.5 1043.58 0.59375C1042.55 0.677245 1041.52 0.816861 1040.5 1.01074C1039.35 1.22893 1038.22 1.53932 1035.96 2.16113L780.648 72.3838L780.639 72.3865C775.756 73.7295 773.312 74.4015 770.833 74.6426C768.63 74.8567 766.411 74.8171 764.217 74.5264C761.746 74.1988 759.326 73.4421 754.486 71.9277L635.275 34.623C629.793 32.9076 627.052 32.0499 624.259 31.7412C621.78 31.4673 619.276 31.5151 616.81 31.8818C614.03 32.2951 611.323 33.2549 605.909 35.1748L464.218 85.4258C458.396 87.4906 455.484 88.5229 452.498 88.9248C449.85 89.2812 447.165 89.2704 444.52 88.8916C441.54 88.465 438.64 87.4087 432.846 85.2986L432.83 85.293L288.691 32.8008C285.816 31.7537 284.379 31.2303 282.903 30.8623C281.593 30.5353 280.26 30.3005 278.917 30.1592C277.405 30.0002 275.874 30 272.814 30H133.492C125.945 30 122.171 30.0003 118.646 30.8984C115.523 31.6945 112.553 33.0056 109.86 34.7783C106.824 36.7776 104.283 39.5661 99.2025 45.1408L99.1973 45.1465L12.1045 140.718L12.1006 140.722C7.62787 145.63 5.39081 148.085 3.79492 150.89C2.37921 153.378 1.33947 156.062 0.709961 158.854C0.000152946 162.003 0 165.326 0 171.971V187.036C0 191.882 0.000906624 195.976 0.0908203 199.5H1440L1441.53 68.4668C1440.95 57.353 1440.66 51.7953 1438.42 46.8291C1436.49 42.5451 1433.31 38.5513 1429.58 35.7002C1425.25 32.3952 1419.72 30.8047 1408.68 27.624L1320.79 2.3125L1320.79 2.31152C1318.44 1.63354 1317.26 1.29463 1316.06 1.05664C1315 0.845122 1313.92 0.693667 1312.84 0.602539Z" fill="#F7532E"/>
</svg>
