<svg width="100%" height="78" preserveAspectRatio="none" viewBox="0 0 390 78" fill="none" xmlns="http://www.w3.org/2000/svg">
<path d="M0.000488281 71.5725C0.000488281 73.7812 0.000923894 75.6472 0.0437126 77.2532H390.001V14.4441L371.501 19.3173L371.496 19.3186C369.172 19.9306 368.01 20.2369 366.83 20.3468C365.782 20.4444 364.725 20.4263 363.681 20.2938C362.505 20.1445 361.353 19.7996 359.051 19.1094L302.32 2.10705C299.711 1.3252 298.406 0.934274 297.077 0.793594C295.897 0.668764 294.706 0.690551 293.532 0.857686C292.209 1.04605 290.921 1.48349 288.345 2.35853L220.916 25.2615C218.145 26.2025 216.759 26.673 215.338 26.8562C214.078 27.0187 212.8 27.0137 211.541 26.8411C210.123 26.6466 208.743 26.1652 205.986 25.2034L205.979 25.2009L137.385 1.27651C136.017 0.799298 135.332 0.560757 134.63 0.393014C134.007 0.243988 133.373 0.136948 132.733 0.07255C132.014 7.11009e-05 131.285 0 129.829 0H63.5276C59.9359 0 58.14 0.000134617 56.4628 0.409482C54.9762 0.772315 53.5629 1.36988 52.2816 2.17782C50.8365 3.08906 49.6272 4.35995 47.2096 6.90076L47.2071 6.90333L5.76086 50.4619L5.75906 50.4638C3.63051 52.7008 2.56591 53.8197 1.80644 55.098C1.13272 56.232 0.637922 57.4553 0.338348 58.7281C0.000560254 60.1633 0.000488281 61.6777 0.000488281 64.7061V71.5725Z" fill="currentColor"/>
</svg>
